<?xml version="1.0" standalone="no"?>
<!DOCTYPE svg PUBLIC "-//W3C//DTD SVG 1.1//EN" "http://www.w3.org/Graphics/SVG/1.1/DTD/svg11.dtd" >
<svg xmlns="http://www.w3.org/2000/svg">
<metadata></metadata>
<defs>
<font id="univers_lt_std_57_cnregular" horiz-adv-x="1024" >
<font-face units-per-em="2048" ascent="1483" descent="-565" />
<missing-glyph horiz-adv-x="454" />
<glyph unicode="&#xfb01;" d="M18 907v127h160v201q0 75 24.5 126.5t69 77.5t93 36t110.5 10q43 0 80 -6v-121q-122 8 -165.5 -32.5t-43.5 -115.5v-176h209v-127h-209v-907h-168v907h-160zM688 1298v181h189v-181h-189zM698 0v1034h168v-1034h-168z" />
<glyph unicode="&#xfb02;" d="M18 907v127h160v201q0 75 24.5 126.5t69 77.5t93 36t110.5 10q43 0 80 -6v-121q-122 8 -165.5 -32.5t-43.5 -115.5v-176h209v-127h-209v-907h-168v907h-160zM713 0v1479h168v-1479h-168z" />
<glyph horiz-adv-x="2048" />
<glyph horiz-adv-x="2048" />
<glyph unicode="&#xd;" horiz-adv-x="2048" />
<glyph unicode=" "  horiz-adv-x="454" />
<glyph unicode="&#x09;" horiz-adv-x="454" />
<glyph unicode="&#xa0;" horiz-adv-x="454" />
<glyph unicode="!" horiz-adv-x="681" d="M229 1479h224l-41 -1137h-146zM246 0v213h192v-213h-192z" />
<glyph unicode="&#x22;" horiz-adv-x="512" d="M72 1055v424h123v-424h-123zM317 1055v424h123v-424h-123z" />
<glyph unicode="#" horiz-adv-x="909" d="M-6 479l35 115h202l72 233h-207l35 115h205l149 479h105l-150 -479h168l146 479h106l-147 -479h209l-35 -115h-209l-72 -233h211l-35 -115h-211l-147 -479h-105l148 479h-164l-151 -479h-105l150 479h-203zM338 594h164l71 233h-165z" />
<glyph unicode="$" horiz-adv-x="909" d="M7.5 395.5q0.5 22.5 2.5 36.5h193q0 -79 19 -142t67 -107t121 -50v516q-56 27 -89.5 45t-82.5 48.5t-78 59.5t-58.5 68t-43 86.5t-13.5 102.5q0 168 104.5 276.5t260.5 108.5v121h88v-121q200 0 300.5 -108t100.5 -310h-207q2 120 -42 184t-152 70v-473q148 -71 194 -99 q155 -96 194 -233q15 -53 15 -113q0 -101 -37.5 -180t-98 -123.5t-129 -67t-138.5 -22.5v-121h-88v121q-89 0 -159 24.5t-112 61t-70.5 86.5t-40.5 94.5t-16.5 91t-4 69zM238 1079q0 -79 44.5 -131.5t127.5 -95.5v428q-77 -11 -124.5 -64.5t-47.5 -136.5zM498 133 q94 11 152.5 69.5t58.5 153.5q0 43 -16 79.5t-47.5 67t-65 53t-82.5 48.5v-471z" />
<glyph unicode="%" horiz-adv-x="1593" d="M143 1114q0 49 1.5 83.5t7.5 78.5t16.5 75t30 63t47 51t68 31.5t92.5 12.5t92.5 -12.5t68 -31.5t47 -51t30 -62.5t16 -75t7 -79t1.5 -83.5q0 -50 -1.5 -84t-7 -78t-16 -73.5t-30 -60.5t-47 -49.5t-68 -30t-92.5 -11.5t-92.5 11.5t-68 30t-47 49.5t-30 60.5t-16.5 73 t-7.5 78.5t-1.5 84zM287 1064.5q0 -17.5 1 -46.5t2.5 -42t4 -35t7 -31.5t11 -23.5t15.5 -20t20 -13t25.5 -9t32.5 -2q22 0 39 3.5t29.5 14t21 19.5t14 31t8.5 36.5t4.5 48t1.5 54v64.5v5q0 156 -12 201q-17 64 -77 74q-13 2 -29 2q-18 0 -32.5 -2.5t-25.5 -9t-20 -12.5 t-15.5 -20.5t-11 -24t-7 -31t-4 -35t-2.5 -42.5t-1 -46.5v-53.5v-53.5zM379 -74l698 1626h133l-702 -1626h-129zM924 356q0 42 1 72.5t5 70t12 68t20 59.5t32 52t46.5 39t63.5 26.5t82 8.5t82 -8.5t63.5 -26.5t46.5 -39t32 -52t20 -59.5t12 -68t5 -70t1 -72.5 q0 -50 -1.5 -84t-7 -78t-16 -73.5t-30 -60.5t-47 -49.5t-68 -30t-92.5 -11.5t-92.5 11.5t-68 30t-47 49.5t-30 60.5t-16 73.5t-7 78t-1.5 84zM1067 306.5q0 -17.5 1 -46.5t2.5 -42t4 -35t7 -31.5t11 -23.5t15.5 -20t20 -13t25.5 -9t32.5 -2t32.5 2t25.5 9t20 13t15.5 20 t11 23.5t7 31.5t4 35t2.5 42t1 46.5v53.5v53.5t-1 46.5t-2.5 42.5t-4 35t-7 31t-11 24t-15.5 20.5t-20 12.5t-25.5 9t-32.5 2.5t-32.5 -2.5t-25.5 -9t-20 -12.5t-15.5 -20.5t-11 -24t-7 -31t-4 -35t-2.5 -42.5t-1 -46.5v-53.5v-53.5z" />
<glyph unicode="&#x26;" horiz-adv-x="1366" d="M111 393q0 51 9 96t22 79t39.5 68.5t48 57.5t62 53t68 48t78.5 49q-194 221 -194 373q0 78 30.5 136t83 91t115.5 49t135 16q151 0 248.5 -75t97.5 -224q0 -185 -247 -393l288 -366q20 66 24.5 147t4.5 272h168q0 -226 -22 -350t-68 -203l237 -317h-213l-118 152 q-82 -100 -179.5 -141.5t-232.5 -41.5q-101 0 -188 26.5t-154 77.5t-105 133t-38 187zM303 397q0 -119 85 -194.5t218 -75.5q103 0 174 33.5t127 113.5l-364 461q-49 -34 -75.5 -53.5t-63.5 -53.5t-55 -64t-32 -73.5t-14 -93.5zM436 1200q0 -46 25.5 -90.5t74.5 -101 t62 -74.5q33 29 56.5 52.5t51 58.5t42 74.5t14.5 80.5q0 77 -43.5 121.5t-118.5 44.5q-71 0 -117.5 -46.5t-46.5 -119.5z" />
<glyph unicode="'" horiz-adv-x="512" d="M195 1055v424h122v-424h-122z" />
<glyph unicode="(" horiz-adv-x="569" d="M102 643q0 90 10.5 179.5t37.5 197t43 165.5t59.5 192t54.5 171h125q-137 -539 -137 -913q0 -202 33.5 -409.5t95.5 -467.5h-119q-12 38 -53.5 167t-58.5 188t-43.5 163.5t-37 192t-10.5 174.5z" />
<glyph unicode=")" horiz-adv-x="569" d="M137 1548h125q11 -37 54.5 -171t59.5 -192t43 -165.5t37.5 -197t10.5 -179.5q0 -87 -10.5 -174.5t-37 -192t-43.5 -163.5t-58.5 -188t-53.5 -167h-119q62 260 95.5 467.5t33.5 409.5q0 374 -137 913z" />
<glyph unicode="*" horiz-adv-x="909" d="M66 1069v135l319 -24l-184 260l121 69l133 -290l133 290l121 -69l-185 -260l320 24v-135l-320 31l187 -266l-119 -66l-137 295l-138 -295l-118 66l186 266z" />
<glyph unicode="+" d="M88 455v127h361v452h126v-452h361v-127h-361v-455h-126v455h-361z" />
<glyph unicode="," horiz-adv-x="454" d="M70 -260l106 473h211l-186 -473h-131z" />
<glyph unicode="-" horiz-adv-x="681" d="M115 479v158h450v-158h-450z" />
<glyph unicode="." horiz-adv-x="454" d="M131 0v213h193v-213h-193z" />
<glyph unicode="/" horiz-adv-x="569" d="M-49 -197l481 1676h137l-481 -1676h-137z" />
<glyph unicode="0" horiz-adv-x="909" d="M72 699v6v17q0 83 0.5 125t4 116.5t10 114t19.5 99t31.5 91.5t47.5 71t67 58.5t89 33t114 13.5t114 -13.5t89 -33t67 -58.5t47.5 -71t31.5 -91.5t19.5 -98.5t10 -114t4 -116.5t0.5 -125.5v-17q0 -266 -17 -379q-35 -234 -171 -312q-78 -45 -195 -45q-63 0 -114 14 t-88.5 34t-67 60.5t-48 73.5t-31.5 93t-19.5 100.5t-10 115t-4 116t-0.5 123.5zM260 668q0 -213 7 -283q22 -212 132 -249q26 -9 56 -9q47 0 82 18t55.5 61.5t33 79t17.5 108.5t5.5 109.5t0.5 119.5v45q0 299 -15 403q-25 162 -107 201q-31 14 -72 14q-36 0 -64 -9.5 t-48 -34.5t-34.5 -49t-23.5 -73.5t-14 -86.5t-7.5 -108.5t-3 -119t-0.5 -137.5z" />
<glyph unicode="1" horiz-adv-x="909" d="M190 1071v180q32 13 109 69.5t131 100.5h162v-1421h-189v1214z" />
<glyph unicode="2" horiz-adv-x="909" d="M88 0v164q72 101 159.5 220t131 178.5t95 134.5t73.5 115.5t44.5 93t29 96t6.5 96.5q0 88 -44 138t-132 50q-170 0 -166 -231h-193q-12 180 77 284.5t267 104.5q193 0 286 -91t93 -282q0 -67 -9 -123t-32.5 -112t-49 -101.5t-75.5 -112t-94.5 -121.5t-122 -152.5 t-143.5 -184.5h563v-164h-764z" />
<glyph unicode="3" horiz-adv-x="909" d="M50.5 328.5q-2.5 27.5 0.5 46.5v16h189q1 -48 4.5 -82.5t15.5 -71t32.5 -59t56.5 -37t85 -14.5q118 0 167.5 66.5t49.5 189.5q0 86 -16 140t-55 85t-93.5 42.5t-140.5 11.5v165q134 -11 212.5 47t78.5 189q0 102 -48.5 162.5t-148.5 60.5q-56 0 -93.5 -19t-55 -54.5 t-24 -72t-5.5 -85.5h-188q-11 186 80.5 287.5t285.5 101.5q185 0 285 -93t100 -276q0 -43 -7.5 -81t-18 -66t-29.5 -53t-34 -41t-41 -31.5t-40 -22.5t-42 -16t-36 -11l-32 -8v-4q162 -23 228.5 -109.5t66.5 -252.5q0 -205 -108 -307.5t-314 -102.5q-68 0 -123.5 13.5t-92 36 t-65.5 52.5t-43.5 63t-26 68t-13 67t-4 59.5z" />
<glyph unicode="4" horiz-adv-x="909" d="M51 346v164l402 911h249v-911h168v-164h-168v-346h-176v346h-475zM215 510h311v739h-4z" />
<glyph unicode="5" horiz-adv-x="909" d="M100 322h189q0 -93 40.5 -154.5t127.5 -61.5q51 0 88 20.5t56 49t30 75t13.5 82.5t2.5 87q0 54 -1 86.5t-4.5 76t-10.5 70t-20.5 55.5t-32.5 44t-47.5 25.5t-65.5 10.5q-73 0 -117 -45t-57 -120h-170v798h663v-164h-475v-413l4 -4q23 45 88 75.5t138 30.5 q152 0 224.5 -116.5t72.5 -362.5q0 -56 -2.5 -99.5t-11.5 -98t-25 -94.5t-45 -81t-69 -66.5t-99 -42t-133 -16.5q-86 0 -149.5 19t-101.5 50t-61 78t-31 95.5t-8 110.5z" />
<glyph unicode="6" horiz-adv-x="909" d="M74 699v6v17q0 83 0.5 125t4 116.5t10 114t19.5 99t31.5 91.5t47.5 71t67 58.5t89 33t114 13.5q162 0 260 -93.5t92 -252.5h-188q0 82 -43.5 145.5t-122.5 63.5q-113 0 -153 -111.5t-40 -402.5h4q35 62 97 97.5t135 35.5q338 0 338 -477q0 -78 -12.5 -147.5t-41.5 -131 t-72 -106t-107.5 -70t-145.5 -25.5q-63 0 -114 14t-88.5 34t-67 60.5t-48 73.5t-31.5 93t-19.5 100.5t-10 115t-4 116t-0.5 123.5zM266 461q0 -50 3 -90t15.5 -88t33 -80t59 -54t90.5 -22q55 0 92.5 28t55.5 81t25 110t7 135q0 287 -192 287q-189 0 -189 -307z" />
<glyph unicode="7" horiz-adv-x="909" d="M61 1257v164h736v-164l-379 -1257h-213l397 1257h-541z" />
<glyph unicode="8" horiz-adv-x="909" d="M76 383q0 344 262 369v2q-121 24 -184.5 115t-63.5 218q0 166 98.5 261.5t266.5 95.5t266 -95.5t98 -261.5q0 -127 -63.5 -218t-184.5 -115v-2q263 -25 263 -369q0 -195 -97.5 -304.5t-281.5 -109.5t-281.5 109.5t-97.5 304.5zM264 381q0 -66 17.5 -121t62 -94t111.5 -39 t111.5 39t61.5 94t17 121q0 37 -2 66t-8 65.5t-19 62.5t-33 49.5t-53 35.5t-75 12q-51 0 -87.5 -19t-56 -46t-30.5 -69.5t-14 -76.5t-3 -80zM279 1094q0 -44 8 -85t26.5 -82t55 -66t86.5 -25t86.5 25t55 66t26.5 82t8 85q0 87 -45.5 150t-130.5 63t-130.5 -63t-45.5 -150z " />
<glyph unicode="9" horiz-adv-x="909" d="M74 1008q0 93 21.5 167.5t57.5 124t85.5 82.5t103 47.5t111.5 14.5q63 0 114 -13.5t89 -33t67 -58.5t47.5 -71t31.5 -91.5t19.5 -98.5t10 -114t4 -116.5t0.5 -125.5v-17q0 -266 -17 -379q-35 -234 -171 -312q-78 -45 -195 -45q-160 0 -257 101.5t-94 269.5h189 q0 -56 14.5 -102t52.5 -78.5t95 -32.5q34 0 60.5 8.5t46.5 29t34.5 44.5t24 64.5t15 79t8.5 98t4 111.5t1 130h-4q-61 -133 -244 -133q-39 0 -77.5 9t-85 38t-81 75.5t-58 131t-23.5 195.5zM262 1012q0 -60 7.5 -107t26.5 -92.5t58.5 -70.5t98.5 -25q47 0 82.5 17.5t55.5 45 t32 68t16 79t4 85.5q0 295 -190 295q-191 0 -191 -295z" />
<glyph unicode=":" horiz-adv-x="454" d="M131 0v213h193v-213h-193zM131 821v213h193v-213h-193z" />
<glyph unicode=";" horiz-adv-x="454" d="M70 -260l106 473h211l-186 -473h-131zM131 821v213h193v-213h-193z" />
<glyph unicode="&#x3c;" d="M86 453v131l854 471v-150l-694 -387l694 -395v-150z" />
<glyph unicode="=" d="M88 256v127h848v-127h-848zM88 659v127h848v-127h-848z" />
<glyph unicode="&#x3e;" d="M84 -27v150l694 395l-694 387v150l854 -471v-131z" />
<glyph unicode="?" horiz-adv-x="909" d="M115 1087q-17 422 356 422q157 0 245.5 -92.5t88.5 -249.5q0 -80 -20 -151.5t-50.5 -121t-66 -97.5t-66 -82.5t-50.5 -74t-20 -75.5v-190h-167v233q0 49 25.5 100.5t62 99.5t72.5 100t61.5 120.5t25.5 142.5q0 78 -39 139.5t-114 61.5q-35 0 -62 -13t-43 -37.5 t-26.5 -51.5t-14.5 -62.5t-5.5 -62t-0.5 -58.5h-192zM352 0v213h193v-213h-193z" />
<glyph unicode="@" horiz-adv-x="1613" d="M49 741q0 209 103.5 386t281 279.5t387.5 102.5q142 0 259 -31t192.5 -78.5t132.5 -112.5t86 -124t47 -122t22.5 -99t4.5 -61q0 -132 -36 -239.5t-90.5 -172.5t-122.5 -109.5t-127 -61.5t-110 -17q-59 0 -109.5 27.5t-68.5 80.5q-47 -49 -113 -76.5t-133 -27.5 q-128 0 -207 89.5t-79 219.5q0 83 23.5 171t69.5 169t106.5 145.5t142.5 103t170 38.5q74 0 138 -36t95 -102l29 97h141l-211 -625q-26 -75 -26 -106q0 -26 17 -40t44 -14q49 0 106.5 31.5t111 89t89 154t35.5 211.5q0 32 -4.5 67.5t-21 87.5t-43 99t-75 96t-112.5 84 t-160 57.5t-213 22.5q-179 0 -330.5 -88t-239 -239t-87.5 -329q0 -134 51.5 -255.5t139.5 -209t209.5 -139t256.5 -51.5q188 0 339.5 70t242.5 202h123q-98 -180 -287 -283.5t-418 -103.5q-126 0 -243.5 38.5t-212.5 109.5t-166.5 166t-110.5 213t-39 245zM526 604 q0 -79 43 -137.5t117 -58.5q68 0 127.5 48t97 117t65.5 147t40 138t12 90q0 62 -41 106t-104 44q-77 0 -146.5 -50.5t-114 -126.5t-70.5 -160.5t-26 -156.5z" />
<glyph unicode="A" horiz-adv-x="1251" d="M31 0l469 1479h239l482 -1479h-211l-107 352h-571l-111 -352h-190zM379 516h473l-238 789h-4z" />
<glyph unicode="B" horiz-adv-x="1251" d="M184 0v1479h482q97 0 164.5 -22.5t100 -52t64.5 -77.5q33 -52 46.5 -107.5t13.5 -89.5q0 -145 -58.5 -232t-195.5 -118v-10q303 -36 303 -354q0 -416 -445 -416h-475zM373 164h266q72 0 127 23.5t85 62t45 80.5t15 86q0 69 -17 119t-45.5 80t-73.5 47.5t-92 23.5t-110 6 h-200v-528zM373 856h274q108 1 163.5 63.5t55.5 172.5q0 98 -57 160.5t-170 62.5h-266v-459z" />
<glyph unicode="C" horiz-adv-x="1138" d="M150 555v418q0 153 32.5 259.5t97 166t148 85t197.5 25.5q217 0 309 -109q80 -95 80 -273q0 -27 -2 -56h-195v24q0 139 -43 191q-26 31 -77 47.5t-89 16.5q-54 0 -99 -14.5t-70 -36t-38 -38t-16 -26.5q0 -1 -5 -10.5t-9 -19.5t-9.5 -34t-9.5 -54t-7 -79.5t-3 -109.5v-396 q0 -105 14 -180.5t36.5 -118.5t58.5 -67.5t71 -31.5t84 -7q23 0 46.5 4t59.5 22t62 49t45.5 91.5t20.5 142.5h194v-14q0 -123 -34 -213q-36 -95 -80.5 -140t-114.5 -69.5t-105.5 -27.5t-83.5 -3q-39 0 -65 1t-67.5 7t-70.5 16.5t-66.5 31.5t-63.5 50t-53 73.5t-43 101 t-26.5 134.5t-10.5 171z" />
<glyph unicode="D" horiz-adv-x="1251" d="M170 0v1479h455q291 0 397 -226q27 -56 43 -168.5t19 -182t3 -116.5q0 -451 -90 -596q-61 -96 -178.5 -143t-308.5 -47h-340zM358 164h179q135 0 210.5 39t111.5 134.5t36 268.5v299q0 221 -69.5 315.5t-219.5 94.5h-248v-1151z" />
<glyph unicode="E" d="M166 0v1479h762v-164h-574v-475h533v-164h-533v-512h586v-164h-774z" />
<glyph unicode="F" horiz-adv-x="909" d="M152 0v1479h733v-164h-545v-475h516v-164h-516v-676h-188z" />
<glyph unicode="G" horiz-adv-x="1251" d="M147 541v485q0 227 117.5 355t347.5 128q244 0 356 -99q104 -93 104 -294q0 -16 -1 -33h-197q0 135 -61.5 202t-200.5 67q-18 0 -34 -1.5t-45 -8.5t-53 -18.5t-51 -36t-45.5 -57t-31 -84t-12.5 -114.5v-500q0 -158 32 -248.5t89 -123.5t151 -33q92 0 161 20t104 46v442 h-273v164h461v-719q-203 -111 -453 -111q-239 0 -352 134.5t-113 437.5z" />
<glyph unicode="H" horiz-adv-x="1251" d="M178 0v1479h189v-639h518v639h188v-1479h-188v676h-518v-676h-189z" />
<glyph unicode="I" horiz-adv-x="569" d="M190 0v1479h189v-1479h-189z" />
<glyph unicode="J" d="M61 459h197q0 -12 0.5 -41t1 -45t2.5 -44t5.5 -45t10 -40.5t15 -38t22 -31.5t31 -26t41 -15t51.5 -6q42 0 75 10.5t55 27t38 44.5t24.5 55t13.5 67t6 71.5t1 76.5v1000h189v-1112q0 -27 -1 -48t-9 -65t-22.5 -78t-45 -75t-72 -68t-108.5 -45.5t-150 -18.5 q-49 0 -101.5 11t-114.5 46t-95 89q-28 46 -42 110t-16 110t-2 124z" />
<glyph unicode="K" horiz-adv-x="1138" d="M166 0v1479h188v-650h6l517 650h213l-537 -668l567 -811h-241l-519 772h-6v-772h-188z" />
<glyph unicode="L" horiz-adv-x="909" d="M166 0v1479h188v-1315h543v-164h-731z" />
<glyph unicode="M" horiz-adv-x="1705" d="M168 0v1479h305l373 -1241h4l377 1241h311v-1479h-188v1315h-4l-414 -1315h-178l-406 1315h-4v-1315h-176z" />
<glyph unicode="N" horiz-adv-x="1366" d="M176 0v1479h266l576 -1266h4v1266h168v-1479h-258l-584 1282h-4v-1282h-168z" />
<glyph unicode="O" horiz-adv-x="1251" d="M160 541v485q0 227 117.5 355t347.5 128t347.5 -128t117.5 -355v-485q0 -303 -113 -437.5t-352 -134.5t-352 134.5t-113 437.5zM352 532q0 -120 17 -200t53.5 -124.5t84.5 -62.5t118 -18q94 0 151 33t89 123.5t32 248.5v500q0 63 -12.5 114.5t-31 84t-45.5 57t-51 36 t-53 18.5t-45 8.5t-34 1.5q-27 0 -52 -3t-68.5 -21t-74.5 -49.5t-54.5 -95.5t-23.5 -151v-500z" />
<glyph unicode="P" horiz-adv-x="1138" d="M190 0v1479h439q411 0 411 -422q0 -96 -29 -170.5t-72.5 -118t-101 -71t-108.5 -37t-102 -9.5h-248v-651h-189zM379 815h207q30 0 58 3.5t67.5 19t67.5 41t48.5 74t20.5 114.5q0 64 -18 112t-43 73t-57 40t-53 19t-38 4h-260v-500z" />
<glyph unicode="Q" horiz-adv-x="1251" d="M147 541v485q0 227 117.5 355t347.5 128t347.5 -128t117.5 -355v-485q0 -102 -36.5 -241.5t-92.5 -164.5l4 -4q111 33 129 33h148v-164h-615q-42 0 -69.5 1t-70 6.5t-71.5 15.5t-66 29t-62 46t-51 68t-41.5 93.5t-25.5 124t-10 157.5zM340 532q0 -97 12 -164t42 -117.5 t84 -74.5t136 -24t135.5 24t83 75t41 117t11.5 164v500q0 87 -23.5 151t-54.5 95.5t-74.5 49.5t-68.5 21t-52 3q-18 0 -34 -1.5t-45 -8.5t-53 -18.5t-51 -36t-45.5 -57t-31 -84t-12.5 -114.5v-500z" />
<glyph unicode="R" horiz-adv-x="1138" d="M162 0v1479h510q76 0 137 -21t101 -56t66.5 -83t38 -100t11.5 -109q0 -133 -71 -224t-199 -114v-4q68 -11 108.5 -29t71 -60t44 -111t17.5 -181q2 -66 17.5 -196t34.5 -191h-197q-24 46 -33.5 116t-14.5 196.5t-9 179.5q-15 188 -224 188h-221v-680h-188zM350 844h283 q96 0 148.5 71t52.5 175q0 91 -49.5 158t-149.5 67h-285v-471z" />
<glyph unicode="S" horiz-adv-x="1138" d="M124 386q2 30 1 54h186v-43q0 -72 21 -125.5t58 -82.5t79 -42.5t90 -13.5q121 0 192.5 57.5t71.5 182.5q0 66 -36.5 120t-95 92t-129.5 74.5t-141.5 77t-129 88.5t-95 120.5t-36.5 162.5q0 191 120.5 296t313.5 105q411 0 411 -400q0 -16 -1 -32h-197v10q1 124 -49 190 q-52 69 -178 69q-95 0 -161.5 -53.5t-66.5 -164.5q0 -47 18.5 -87.5t50.5 -70.5t74.5 -58.5t90.5 -52t98 -51.5t98 -55.5t90.5 -65t74.5 -80t50.5 -100.5t18.5 -126q0 -91 -24.5 -162t-66.5 -117.5t-101.5 -77t-125 -43t-141.5 -12.5h-11q-64 1 -119 11q-59 12 -101 31.5 t-76 46.5t-54 59t-36 67t-21.5 70t-10.5 69q-4 26 -4 50v13z" />
<glyph unicode="T" d="M29 1315v164h966v-164h-389v-1315h-188v1315h-389z" />
<glyph unicode="U" horiz-adv-x="1251" d="M160 541v938h188v-947q0 -120 17.5 -200t54.5 -124.5t86 -62.5t119 -18t118.5 18t85.5 62.5t54.5 124.5t17.5 200v947h189v-938q0 -303 -113 -437.5t-352 -134.5t-352 134.5t-113 437.5z" />
<glyph unicode="V" horiz-adv-x="1138" d="M27 1479h204l338 -1301h4l347 1301h192l-432 -1479h-225z" />
<glyph unicode="W" horiz-adv-x="1820" d="M12 1479h201l279 -1282h4l297 1282h243l269 -1282h4l301 1282h196l-391 -1479h-229l-281 1282h-4l-299 -1282h-229z" />
<glyph unicode="X" horiz-adv-x="1138" d="M12 0l426 766l-403 713h217l303 -574l307 574h207l-397 -713l442 -766h-227l-344 633l-326 -633h-205z" />
<glyph unicode="Y" d="M16 1479h211l289 -715l299 715h191l-404 -916v-563h-188v563z" />
<glyph unicode="Z" d="M49 0v213l717 1098v4h-692v164h882v-189l-733 -1126h750v-164h-924z" />
<glyph unicode="[" horiz-adv-x="569" d="M143 -242v1790h340v-114h-172v-1561h178v-115h-346z" />
<glyph unicode="\" horiz-adv-x="569" d="M-2 1479h137l434 -1510h-137z" />
<glyph unicode="]" horiz-adv-x="569" d="M80 -127h178v1561h-172v114h340v-1790h-346v115z" />
<glyph unicode="^" d="M135 567l309 854h123l320 -854h-154l-229 652h-4l-226 -652h-139z" />
<glyph unicode="_" d="M0 -154h1024v-102h-1024v102z" />
<glyph unicode="`" horiz-adv-x="569" d="M41 1479h223l182 -289h-137z" />
<glyph unicode="a" d="M133 319q0 65 17.5 116.5t48.5 85t73 58.5t91 37q49 10 102 18q50 7 100 8h7q54 0 104 -1q0 43 1 83v7q-1 36 -9 70q-10 37 -26.5 65.5t-52 45t-87.5 16.5q-82 0 -126 -51q-37 -43 -37 -109q0 -12 1 -25h-182q6 168 92.5 240t257.5 72q97 0 164.5 -23.5t104 -68t52 -98 t15.5 -122.5v-497q0 -113 20 -246h-184v150h-4q-38 -89 -100.5 -129.5t-159.5 -40.5q-155 0 -219 88.5t-64 250.5zM301 307q0 -81 41 -135.5t121 -54.5q34 0 63.5 9t60 35t51 68.5t32.5 115.5q8 51 8 113q0 27 -2 56q-142 -2 -186 -8q-152 -22 -181 -134q-8 -29 -8 -65z" />
<glyph unicode="b" d="M162 0v1479h168v-549h6q87 125 227 125q54 0 99.5 -11t78.5 -28.5t59 -47.5t43 -58.5t29 -72.5t18.5 -78t10 -85.5t4 -86t0.5 -87.5q0 -132 -19.5 -228.5t-49.5 -151.5t-76.5 -87.5t-89.5 -42.5t-99 -10q-80 0 -137 35t-100 108h-4v-123h-168zM330 448v-15q0 -31 3 -62 q4 -39 10 -76t20 -69.5t33.5 -56.5t50.5 -38t71 -14q44 0 78 14t56 33.5t37.5 54.5t23 62.5t11.5 74t4.5 71.5t0.5 71q0 90 -4 150.5t-16.5 115.5t-35 86.5t-59.5 49.5t-90 18q-39 0 -69.5 -13.5t-50.5 -33.5t-34.5 -52t-22 -61t-11.5 -68.5t-5 -67t-1 -63.5v-37v-36.5 v-37.5z" />
<glyph unicode="c" d="M152 502q0 73 3 127t12.5 114.5t26.5 104t46.5 85t70 66.5t100 40.5t134.5 15.5q157 0 241 -91q77 -84 77 -236q0 -13 -1 -26h-174v9q0 55 -12 96q-12 44 -34.5 67t-46.5 33.5t-50 10.5q-52 0 -89 -14.5t-67.5 -51.5t-45.5 -106.5t-15 -172.5q0 -258 44.5 -357t172.5 -99 q18 0 41 10t49.5 33t43.5 71q15 43 15 100v13h176v-13q0 -75 -20 -136q-22 -66 -58 -105t-81.5 -65t-86.5 -35.5t-79 -9.5q-51 0 -91 5t-82.5 19t-73.5 37.5t-60 63t-47 94t-28.5 131t-10.5 172.5z" />
<glyph unicode="d" d="M119 500q0 53 0.5 87.5t4 86t10 85.5t18.5 78t29 72.5t43 58.5t59 47.5t78.5 28.5t99.5 11q140 0 227 -125h6v549h168v-1479h-168v123h-4q-43 -73 -100 -108t-137 -35q-56 0 -99 10t-89.5 42.5t-76.5 87.5t-49.5 151.5t-19.5 228.5zM295 498q0 -46 0.5 -71t4.5 -71.5 t11.5 -74t23 -62.5t37.5 -54.5t56 -33.5t78 -14q34 0 62 9.5t47 31t33 43t22.5 60t13.5 66t7 76.5t2.5 76t0.5 80q0 36 -1 63.5t-5 67t-11.5 68.5t-22 61t-34.5 52t-50.5 33.5t-69.5 13.5q-53 0 -90 -18t-59.5 -49.5t-35 -86.5t-16.5 -115.5t-4 -150.5z" />
<glyph unicode="e" d="M131 502q0 73 3 127t12.5 114.5t26.5 104t46.5 85t70 66.5t100 40.5t134.5 15.5q110 0 182 -29.5t113 -95t57.5 -155.5t16.5 -224v-88h-582q0 -85 9.5 -146.5t26 -100t43.5 -61t57.5 -30.5t72.5 -8q82 0 128.5 56t51.5 140h185q-1 -167 -97 -250t-264 -83q-51 0 -91 5 t-82.5 19t-73.5 37.5t-60 63t-47 94t-28.5 131t-10.5 172.5zM311 590h404q0 88 -10 150.5t-26.5 98.5t-45 56.5t-56.5 26.5t-69 6q-44 0 -76 -13t-61 -47.5t-44 -104t-16 -173.5z" />
<glyph unicode="f" horiz-adv-x="569" d="M18 907v127h160v201q0 75 24.5 126.5t69 77.5t93 36t110.5 10q43 0 80 -6v-121q-20 1 -38 1q-91 0 -127 -33q-44 -41 -44 -116v-176h209v-127h-209v-907h-168v907h-160z" />
<glyph unicode="g" d="M125 549q0 98 14 177.5t35.5 131t52 90t59 58.5t62.5 31.5t56 14.5t45 3q171 0 241 -148h4v127h168v-1138q0 -84 -26.5 -141.5t-79.5 -89t-118.5 -44t-156.5 -12.5q-140 0 -231 71q-83 64 -83 179q0 13 1 26h188q1 -71 44.5 -110t113.5 -39q86 0 133 48.5t47 129.5v215 h-6q-31 -60 -94 -94.5t-133 -34.5q-82 0 -142.5 28.5t-97 75.5t-58.5 120t-30 149.5t-8 175.5zM301 549q0 -98 9 -170t25.5 -118t42 -73.5t55 -38t69.5 -10.5q41 0 73 14t52 33t34.5 54t21.5 61.5t10.5 71.5t4 68.5t0.5 66.5v14q0 152 -11 211q-40 178 -189 182 q-39 0 -70.5 -13.5t-52 -34.5t-35 -53.5t-22 -62t-11.5 -70.5t-5 -68t-1 -64z" />
<glyph unicode="h" d="M145 0v1479h168v-578h9q50 88 112.5 121t167.5 33q137 0 206 -76t69 -246v-733h-168v700q0 104 -42 161t-143 57q-49 0 -86.5 -16t-60.5 -43t-38 -67t-20.5 -84.5t-5.5 -99.5v-608h-168z" />
<glyph unicode="i" horiz-adv-x="454" d="M133 1298v181h189v-181h-189zM143 0v1034h168v-1034h-168z" />
<glyph unicode="j" horiz-adv-x="454" d="M18 -248q63 0 94 18.5t31 77.5v1186h168v-1177q0 -66 -11.5 -108.5t-42.5 -76t-89.5 -48.5t-149.5 -15v143zM133 1298v181h189v-181h-189z" />
<glyph unicode="k" horiz-adv-x="909" d="M147 0v1479h168v-891h4l316 446h205l-344 -444l405 -590h-213l-369 580h-4v-580h-168z" />
<glyph unicode="l" horiz-adv-x="454" d="M143 0v1479h168v-1479h-168z" />
<glyph unicode="m" horiz-adv-x="1478" d="M129 1034h178v-129h4q35 80 99 115t159 35q78 0 146.5 -33.5t95.5 -99.5q39 76 101.5 104.5t144.5 28.5q282 0 282 -269v-786h-168v717q0 43 -7 76t-23.5 63t-50 46t-82.5 16q-50 0 -72.5 -6.5t-54.5 -32.5q-32 -27 -45 -82.5t-13 -100.5v-696h-168v717q0 43 -7 76 t-23.5 63t-50 46t-82.5 16q-39 0 -83.5 -20.5t-62.5 -49.5q-39 -64 -39 -152v-696h-168v819q0 95 -10 215z" />
<glyph unicode="n" d="M137 1034h178v-133h9q49 86 111.5 120t164.5 34q81 0 136 -23t85.5 -69.5t43 -105.5t12.5 -140v-717h-168v717q0 201 -183 201q-53 0 -92.5 -19t-61.5 -47.5t-35.5 -71.5t-17.5 -81.5t-4 -86.5v-612h-168v819q0 95 -10 215z" />
<glyph unicode="o" d="M119 502q0 73 3 127t12.5 114.5t26.5 104t46.5 85t70 66.5t100 40.5t134.5 15.5t134.5 -15.5t100 -40.5t70 -66.5t46.5 -85t26.5 -104t12.5 -114.5t3 -127q0 -96 -10.5 -172.5t-28.5 -131t-47 -94t-60 -63t-73.5 -37.5t-82.5 -19t-91 -5t-91 5t-82.5 19t-73.5 37.5 t-60 63t-47 94t-28.5 131t-10.5 172.5zM295 573q0 -258 44.5 -357t172.5 -99t172.5 99t44.5 357q0 103 -15 172.5t-45.5 106.5t-67.5 51.5t-89 14.5t-89 -14.5t-67.5 -51.5t-45.5 -106.5t-15 -172.5z" />
<glyph unicode="p" d="M162 -391v1425h168v-123h4q44 73 100.5 108.5t136.5 35.5q56 0 99 -10t89.5 -42.5t76.5 -87.5t49.5 -151.5t19.5 -228.5q0 -53 -0.5 -87.5t-4 -86t-10 -85.5t-18.5 -78t-29 -72.5t-43 -58.5t-59 -47.5t-78.5 -28.5t-99.5 -11q-141 0 -227 124h-6v-495h-168zM330 473 q0 -36 1 -63t5 -66.5t11.5 -68.5t22 -60.5t34.5 -51.5t50.5 -33t69.5 -13q45 0 78 11t55.5 36.5t36.5 57.5t22 82.5t10.5 103t2.5 127.5q0 46 -0.5 71.5t-4.5 72t-11.5 74t-23 63t-37.5 55t-56 33.5t-78 14q-46 0 -80.5 -19t-53.5 -51t-32.5 -73.5t-16.5 -87t-5 -91.5 q-1 -22 -1 -44t1 -42v-37z" />
<glyph unicode="q" d="M119 535q0 132 19.5 228.5t49.5 151.5t76.5 87.5t89.5 42.5t99 10q80 0 136.5 -35.5t100.5 -108.5h4v123h168v-1425h-168v495h-6q-86 -124 -227 -124q-54 0 -99.5 11t-78.5 28.5t-59 47.5t-43 58.5t-29 72.5t-18.5 78t-10 85.5t-4 86t-0.5 87.5zM295 535 q0 -75 2.5 -127.5t10.5 -103t22 -82.5t36.5 -57.5t55.5 -36.5t78 -11q39 0 69.5 13t50.5 33t34.5 51.5t22 60.5t11.5 68.5t5 66.5t1 63v37v36v37v15q0 31 -3 62q-4 40 -10 76.5t-20 68.5t-33.5 56t-50.5 38t-71 14q-34 0 -62.5 -8.5t-49 -20.5t-37 -34.5t-26.5 -42 t-17.5 -51t-11 -53.5t-5.5 -58t-2 -55.5v-54.5z" />
<glyph unicode="r" horiz-adv-x="681" d="M154 0v1034h168v-155h4q21 47 45 79t49.5 51t62 29.5t72.5 13.5t90 3v-174q-70 10 -90 10q-54 0 -95.5 -16t-67 -42.5t-42 -64t-22.5 -76t-6 -82.5v-610h-168z" />
<glyph unicode="s" horiz-adv-x="909" d="M96 315h191q0 -26 1.5 -44t10.5 -50t25.5 -52t51.5 -36t83 -16q79 0 128.5 40.5t49.5 116.5q0 37 -28.5 69t-74 56.5t-100.5 50t-110 55.5t-100.5 65t-74 87t-28.5 115q0 36 8.5 71.5t33 75t63 68.5t103.5 48.5t148 19.5q149 0 243 -74q85 -67 86 -192q0 -13 -1 -27h-187 q1 81 -40 123.5t-121 42.5q-70 0 -115 -37t-45 -103q0 -37 28.5 -68t74 -55t100.5 -48t110 -53.5t100.5 -64.5t74 -87.5t28.5 -116.5q0 -162 -98 -238.5t-262 -76.5q-173 0 -267 82q-90 78 -90 239v14z" />
<glyph unicode="t" horiz-adv-x="569" d="M-4 907v127h170v199l168 76v-275h225v-127h-225v-633q0 -20 0.5 -29.5t3 -28.5t8 -29t16.5 -23.5t27 -21t41 -12.5t57 -5q2 0 76 9v-130q-18 -1 -76.5 -8.5t-89.5 -7.5q-231 0 -231 184v735h-170z" />
<glyph unicode="u" d="M154 246v788h168v-717q0 -97 44.5 -152.5t131.5 -55.5q78 0 140 60.5t62 178.5v686h168v-819q0 -83 11 -215h-179v125h-6q-41 -70 -110 -107.5t-152 -37.5q-136 0 -207 67.5t-71 198.5z" />
<glyph unicode="v" horiz-adv-x="909" d="M29 1034h188l232 -876h4l249 876h177l-324 -1034h-219z" />
<glyph unicode="w" horiz-adv-x="1478" d="M18 1034h187l186 -891h4l230 891h237l211 -891h4l205 891h178l-276 -1034h-226l-221 881h-4l-231 -881h-226z" />
<glyph unicode="x" horiz-adv-x="909" d="M12 0l322 541l-295 493h215l197 -370l208 370h203l-309 -493l342 -541h-221l-240 424l-223 -424h-199z" />
<glyph unicode="y" horiz-adv-x="909" d="M16 1034h195l248 -841h4l248 841h182l-469 -1425h-174l117 391z" />
<glyph unicode="z" horiz-adv-x="796" d="M72 0v158l450 735v4h-428v137h617v-153l-457 -744h471v-137h-653z" />
<glyph unicode="{" horiz-adv-x="561" d="M14 629v114q96 21 140.5 53.5t44.5 104.5v381q0 56 12 100t33 71.5t48 47.5t57 28.5t61.5 14.5t60 4.5t52.5 -0.5h22v-114q-104 0 -141 -45t-37 -140v-313q0 -107 -43.5 -166t-165.5 -82v-4q65 -14 107.5 -39.5t64 -63.5t29.5 -79.5t8 -100.5v-352q0 -92 38.5 -137 t139.5 -45v-115q-137 -4 -212 26t-104.5 94.5t-29.5 180.5v404q0 33 -7 57t-16 38t-29.5 26.5t-35 17.5t-46.5 15.5t-51 17.5z" />
<glyph unicode="|" horiz-adv-x="512" d="M193 -512v2048h126v-2048h-126z" />
<glyph unicode="}" horiz-adv-x="561" d="M14 -133q101 0 140 45.5t39 136.5v352q0 47 4.5 81.5t17.5 69t36 58.5t60.5 43.5t89.5 30.5v4q-122 23 -165 82t-43 166v313q0 95 -37.5 140t-141.5 45v114h22q24 -1 52.5 0.5t60 -4.5t61.5 -14.5t57 -28.5t48 -47.5t33 -71.5t12 -100v-381q0 -72 44.5 -104.5 t140.5 -53.5v-114q-19 -7 -51 -17.5t-46.5 -15.5t-35 -17.5t-29.5 -26.5t-16 -38t-7 -57v-404q0 -116 -29.5 -180.5t-104.5 -94.5t-212 -26v115z" />
<glyph unicode="~" d="M90 438q22 51 43 88t50.5 75t67 58.5t79.5 20.5q68 0 196 -72q8 -4 28.5 -14.5t29 -15t25.5 -13t26.5 -12t22.5 -8t23 -6.5t19 -2q90 0 166 170l70 -97q-100 -227 -238 -227q-15 0 -35 5t-37 11t-44 18.5t-39.5 19t-40 20.5t-31.5 16q-95 51 -141 51q-25 0 -48 -12.5 t-38.5 -27.5t-33.5 -45t-26 -47t-24 -52z" />
<glyph unicode="&#xa1;" horiz-adv-x="681" d="M229 -391l41 1136h146l37 -1136h-224zM246 874v213h192v-213h-192z" />
<glyph unicode="&#xa2;" horiz-adv-x="909" d="M94 502q0 73 3 127t12.5 114.5t26.5 104t46.5 85t70 66.5t100 40.5t134.5 15.5q66 0 125 -19l54 129l71 -30l-53 -131q130 -83 121 -302h-174q0 79 -17 129l-272 -657q47 -59 145 -59q74 0 111 66.5t39 162.5h176q0 -164 -99.5 -265.5t-226.5 -101.5q-132 0 -208 41 l-58 -137l-76 33l64 154q-115 121 -115 434zM270 573q0 -198 23 -299h4l258 625q-25 19 -68 19q-52 0 -89 -14.5t-67.5 -51.5t-45.5 -106.5t-15 -172.5z" />
<glyph unicode="&#xa3;" horiz-adv-x="909" d="M-8 692v164h164v166q0 3 -1 25.5t-1 40.5t2.5 50t8.5 57.5t18.5 58.5t30.5 58.5t47 51t65 42.5t87.5 27.5t112.5 10.5q177 0 272.5 -96t86.5 -273h-197q7 211 -164 211q-27 0 -49 -3t-39 -11.5t-30.5 -16t-23 -22t-16.5 -24.5t-11 -30t-6.5 -31.5t-3.5 -34.5t-1 -33.5 v-35.5v-14v-174h283v-164h-283v-528h533v-164h-873v164h152v528h-164z" />
<glyph unicode="&#xa4;" horiz-adv-x="909" d="M-6 614q0 91 20.5 164t67.5 146l-80 88l96 108l80 -88q121 101 285 101q137 0 268 -101l82 88l96 -108l-78 -88q87 -147 87 -320q0 -82 -21.5 -149.5t-65.5 -143.5l78 -86l-96 -108l-82 88q-124 -103 -285 -103q-134 0 -268 103l-80 -88l-96 108l80 86q-88 143 -88 303z M162 614q0 -154 80.5 -264t208.5 -110q135 0 217 110t82 271q0 99 -34 183.5t-100.5 137.5t-152.5 53q-140 0 -220.5 -107.5t-80.5 -273.5z" />
<glyph unicode="&#xa5;" horiz-adv-x="909" d="M-4 1421h199l266 -657l274 657h180l-327 -741h186v-137h-237v-135h237v-138h-237v-270h-168v270h-234v138h234v135h-234v137h182z" />
<glyph unicode="&#xa6;" horiz-adv-x="512" d="M193 358h126v-716h-126v716zM193 666v716h126v-716h-126z" />
<glyph unicode="&#xa7;" horiz-adv-x="909" d="M113 702q0 95 56.5 157t154.5 108q-92 43 -138.5 97t-46.5 144q0 77 31 136.5t83 94.5t113.5 52.5t127.5 17.5q123 0 233 -39v-172q-4 1 -26.5 9t-28.5 10t-26.5 8.5t-29.5 9t-26.5 7t-29.5 6t-27 3t-29 1.5q-66 0 -119 -34t-53 -95q0 -43 25 -74t64.5 -50.5t87.5 -36.5 t96 -37t87.5 -46.5t64.5 -72t25 -105.5q0 -93 -60 -166t-151 -103v-4q96 -21 160 -86t64 -159q0 -65 -20.5 -118t-56 -89t-85 -60.5t-104.5 -35.5t-117 -11q-127 0 -271 41v176q4 -1 50 -18.5t100.5 -29t114.5 -11.5q78 0 137 34.5t59 102.5q0 40 -21 70.5t-55.5 48.5 t-78.5 36t-89.5 31t-89.5 35t-78.5 48t-55.5 69.5t-21 99.5zM281 745q0 -28 6.5 -50t15.5 -35t27 -25t32 -18t40 -17t42 -18q19 4 46 18t55.5 36.5t48.5 56.5t20 71q0 33 -12.5 58.5t-35.5 41.5t-43 25.5t-48 19t-37 13.5q-20 -8 -39 -18t-49.5 -31.5t-49.5 -55t-19 -72.5z " />
<glyph unicode="&#xa8;" horiz-adv-x="569" d="M8 1208v213h193v-213h-193zM369 1208v213h192v-213h-192z" />
<glyph unicode="&#xa9;" horiz-adv-x="1638" d="M49 741q0 209 103.5 386t281 279.5t387.5 102.5q209 0 385.5 -102.5t279.5 -279.5t103 -386q0 -158 -61 -301.5t-163.5 -246.5t-245 -163.5t-298.5 -60.5q-126 0 -243.5 38.5t-212.5 109.5t-166.5 166t-110.5 213t-39 245zM164 739q0 -134 51.5 -255.5t139.5 -209 t209.5 -139t256.5 -51.5t256 51.5t208.5 139t138.5 208.5t51 256q0 134 -51.5 255t-138.5 209t-208.5 140t-255.5 52q-179 0 -330.5 -88t-239 -239t-87.5 -329zM506 662v206q0 81 15 141.5t49.5 109.5t98.5 74.5t156 25.5q147 0 213.5 -64.5t63.5 -198.5h-144 q0 43 -9.5 72.5t-21.5 44t-34 22t-34.5 8.5t-34.5 1h-7q-83 0 -125.5 -40t-42.5 -138v-291q0 -121 42.5 -166t123.5 -45q154 0 158 166h143q3 -127 -69.5 -204t-212.5 -77h-10q-25 0 -39 0.5t-42.5 3.5t-47.5 8.5t-46 18t-45 29.5t-38 44t-32 61.5t-20 82.5t-8 105z" />
<glyph unicode="&#xaa;" horiz-adv-x="614" d="M37 1069q0 210 383 201q1 33 -2 56t-14.5 48t-38 38t-68.5 13q-57 0 -89 -27t-28 -75h-129q8 186 250 186q254 0 254 -186v-299q0 -65 14 -147h-147v90h-4q-44 -103 -178 -103q-102 0 -152.5 55t-50.5 150zM172 1061q0 -49 24 -81t74 -32q29 0 54 9.5t49.5 33.5t37.5 74 t9 121q-115 -2 -149 -9q-97 -25 -99 -116z" />
<glyph unicode="&#xab;" horiz-adv-x="909" d="M63 553l191 401h156l-162 -401l160 -395h-160zM416 553l190 401h156l-162 -401l160 -395h-160z" />
<glyph unicode="&#xac;" d="M88 659v127h848v-546h-127v419h-721z" />
<glyph unicode="&#xad;" horiz-adv-x="681" d="M115 479v158h450v-158h-450z" />
<glyph unicode="&#xae;" horiz-adv-x="1638" d="M49 741q0 209 103.5 386t281 279.5t387.5 102.5q209 0 385.5 -102.5t279.5 -279.5t103 -386q0 -158 -61 -301.5t-163.5 -246.5t-245 -163.5t-298.5 -60.5q-126 0 -243.5 38.5t-212.5 109.5t-166.5 166t-110.5 213t-39 245zM164 739q0 -134 51.5 -255.5t139.5 -209 t209.5 -139t256.5 -51.5t256 51.5t208.5 139t138.5 208.5t51 256q0 134 -51.5 255t-138.5 209t-208.5 140t-255.5 52q-179 0 -330.5 -88t-239 -239t-87.5 -329zM532 295v887h353q120 0 184 -65t64 -156q0 -77 -53.5 -133.5t-139.5 -71.5v-4q87 -9 119.5 -53t36.5 -173 q2 -47 11.5 -121t22.5 -110h-141q-16 28 -22.5 69.5t-9 118t-5.5 107.5q-11 100 -133 100h-143v-395h-144zM676 805h184q63 0 96 40.5t33 102.5q0 55 -31.5 95t-97.5 40h-184v-278z" />
<glyph unicode="&#xaf;" horiz-adv-x="569" d="M2 1245v115h565v-115h-565z" />
<glyph unicode="&#xb0;" horiz-adv-x="819" d="M102 1137q-1 126 89.5 216.5t218.5 90.5q126 0 216.5 -90.5t90.5 -216.5q0 -127 -90.5 -217.5t-216.5 -90.5q-128 0 -218 90.5t-90 217.5zM229 1137q0 -75 53 -128t128 -53q74 0 127 53t53 128q0 74 -53.5 127t-128.5 53q-74 0 -127 -53.5t-52 -126.5z" />
<glyph unicode="&#xb1;" d="M88 0v127h848v-127h-848zM88 575v127h361v332h126v-332h361v-127h-361v-331h-126v331h-361z" />
<glyph unicode="&#xb2;" horiz-adv-x="544" d="M27 578v108q50 62 118 145.5t94.5 116.5t62 81.5t46.5 74t20 57t9 66.5q0 45 -29 73.5t-86 28.5q-49 0 -68.5 -38t-17.5 -91h-145q-9 103 50 173.5t173 70.5q139 0 202.5 -53.5t63.5 -169.5q0 -47 -9.5 -87.5t-24.5 -72t-46.5 -75t-61 -78t-84 -100t-99.5 -122.5h329 v-108h-497z" />
<glyph unicode="&#xb3;" horiz-adv-x="544" d="M2 770.5v33.5v9h131q2 -67 26 -103t93 -36q77 0 109 34t32 99q0 94 -44.5 131t-153.5 37v98q84 -6 131 31t47 110q0 127 -117 127q-113 0 -109 -131h-129q-8 111 52 172.5t186 61.5q122 0 191 -55.5t69 -165.5q0 -44 -14.5 -79t-34.5 -54.5t-47.5 -34t-48 -20 t-41.5 -10.5q-4 -1 -6 -1v-4q213 -24 213 -215q0 -121 -79.5 -183.5t-215.5 -62.5q-50 0 -90 11t-64.5 26t-42.5 40.5t-26 44.5t-12.5 48.5t-4.5 41z" />
<glyph unicode="&#xb4;" horiz-adv-x="569" d="M123 1190l182 289h223l-268 -289h-137z" />
<glyph unicode="&#xb5;" d="M154 -391v1425h168v-717q0 -97 44.5 -152.5t131.5 -55.5q78 0 140 60.5t62 178.5v686h168v-819q0 -83 11 -215h-179v125h-6q-41 -70 -110 -107.5t-152 -37.5q-25 0 -62 7t-48 13v-391h-168z" />
<glyph unicode="&#xb6;" horiz-adv-x="901" d="M16 1081q0 46 7 91t30.5 103t62.5 101t110 73t165 30h402v-1727h-144v1589h-168v-1589h-143v940q-84 -1 -158.5 52t-119 143.5t-44.5 193.5z" />
<glyph unicode="&#xb7;" horiz-adv-x="454" d="M131 412v213h193v-213h-193z" />
<glyph unicode="&#xb8;" horiz-adv-x="569" d="M61 -416l35 82q87 -31 133 -31q45 0 81 20t36 62q0 41 -28.5 62.5t-71.5 21.5q-12 0 -24.5 -2.5t-30 -7.5t-23.5 -6l-35 39l129 176h98l-94 -123l4 -4q32 12 62 12q72 0 121 -41.5t49 -113.5q0 -50 -22 -88t-57.5 -60t-76 -32.5t-82.5 -10.5q-95 0 -203 45z" />
<glyph unicode="&#xb9;" horiz-adv-x="544" d="M102 1206v121q21 8 71.5 42.5t84.5 60.5h127v-852h-143v714z" />
<glyph unicode="&#xba;" horiz-adv-x="614" d="M41 1178q0 61 5 105t21.5 89t45 73.5t77.5 46t117 17.5t117 -17.5t77.5 -46t45 -73.5t21.5 -89t5 -105q0 -80 -14.5 -138t-38 -91.5t-59.5 -53t-71.5 -25.5t-82.5 -6q-60 0 -103 11t-82.5 42.5t-60 96.5t-20.5 164zM176 1221q0 -158 25 -215.5t106 -57.5t106 57.5 t25 215.5q0 83 -16 128.5t-43 60.5t-72 15t-72 -15t-43 -60.5t-16 -128.5z" />
<glyph unicode="&#xbb;" horiz-adv-x="909" d="M147 954h156l191 -401l-185 -395h-159l159 395zM500 954h155l191 -401l-184 -395h-160l160 395z" />
<glyph unicode="&#xbc;" horiz-adv-x="1363" d="M102 1206v121q21 8 71.5 42.5t84.5 60.5h127v-852h-143v714zM133 -55l895 1534h127l-893 -1534h-129zM719 201v104l262 547h203v-537h108v-114h-108v-201h-144v201h-321zM850 315h190v410h-4z" />
<glyph unicode="&#xbd;" horiz-adv-x="1363" d="M41 1206v121q21 8 71.5 42.5t84.5 60.5h127v-852h-144v714zM72 -55l895 1534h127l-893 -1534h-129zM788 0v109q51 64 118 146t94.5 116t62.5 81t46.5 73t20.5 58t9 66q0 46 -29 74.5t-86 28.5q-49 0 -68.5 -38t-17.5 -91h-145q-9 103 50 173t173 70q139 0 202.5 -53.5 t63.5 -169.5q0 -56 -11 -99t-42.5 -92.5t-60.5 -85.5t-95 -114t-117 -143h330v-109h-498z" />
<glyph unicode="&#xbe;" horiz-adv-x="1363" d="M12 770.5v33.5v9h131q2 -67 26 -103t93 -36q77 0 109 34t32 99q0 94 -44.5 131t-153.5 37v98q84 -6 131 31t47 110q0 127 -117 127q-63 0 -86.5 -35t-21.5 -96h-129q-8 111 51.5 172.5t185.5 61.5q122 0 191 -55.5t69 -165.5q0 -44 -14.5 -79t-34.5 -54.5t-47.5 -34 t-48 -20t-41.5 -10.5q-4 -1 -6 -1v-4q213 -24 213 -215q0 -121 -79.5 -183.5t-215.5 -62.5q-50 0 -90 11t-64.5 26t-42.5 40.5t-26 44.5t-12.5 48.5t-4.5 41zM205 -55l895 1534h127l-893 -1534h-129zM750 201v104l262 547h202v-537h109v-114h-109v-201h-143v201h-321z M881 315h190v410h-4z" />
<glyph unicode="&#xbf;" horiz-adv-x="909" d="M104 -80q0 94 28 176.5t68 138.5t80.5 104t68.5 94.5t28 88.5v191h168v-234q0 -49 -25.5 -100.5t-62 -99.5t-73 -100t-62 -120.5t-25.5 -142.5q0 -78 39.5 -139.5t114.5 -61.5q35 0 62 13t43 38t26.5 51.5t14.5 62.5t5 61.5t0 58.5h193q17 -422 -357 -422 q-157 0 -245.5 92.5t-88.5 249.5zM365 874v213h192v-213h-192z" />
<glyph unicode="&#xc0;" horiz-adv-x="1251" d="M31 0l469 1479h239l482 -1479h-211l-107 352h-571l-111 -352h-190zM379 516h473l-238 789h-4zM383 1923h223l182 -289h-137z" />
<glyph unicode="&#xc1;" horiz-adv-x="1251" d="M31 0l469 1479h239l482 -1479h-211l-107 352h-571l-111 -352h-190zM379 516h473l-238 789h-4zM465 1634l182 289h223l-268 -289h-137z" />
<glyph unicode="&#xc2;" horiz-adv-x="1251" d="M31 0l469 1479h239l482 -1479h-211l-107 352h-571l-111 -352h-190zM328 1634l204 289h189l205 -289h-164l-135 193l-135 -193h-164zM379 516h473l-238 789h-4z" />
<glyph unicode="&#xc3;" horiz-adv-x="1251" d="M31 0l469 1479h239l482 -1479h-211l-107 352h-571l-111 -352h-190zM279 1628q10 100 63 160.5t150 60.5q56 0 153 -37q89 -38 121 -38q95 0 104 92h105q-10 -93 -66 -158.5t-147 -65.5q-45 0 -147.5 39t-147.5 39q-34 0 -61.5 -28.5t-32.5 -63.5h-94zM379 516h473 l-238 789h-4z" />
<glyph unicode="&#xc4;" horiz-adv-x="1251" d="M31 0l469 1479h239l482 -1479h-211l-107 352h-571l-111 -352h-190zM350 1653v213h193v-213h-193zM379 516h473l-238 789h-4zM711 1653v213h192v-213h-192z" />
<glyph unicode="&#xc5;" horiz-adv-x="1251" d="M31 0l469 1479h239l482 -1479h-211l-107 352h-571l-111 -352h-190zM379 516h473l-238 789h-4zM420 1819q0 86 60.5 146t146.5 60q87 0 147 -60.5t60 -145.5q0 -86 -60.5 -146.5t-146.5 -60.5q-85 0 -146 60t-61 147zM504 1819q0 -50 36 -86.5t87 -36.5q49 0 86 37t37 86 q0 51 -36.5 87t-86.5 36q-51 0 -87 -36t-36 -87z" />
<glyph unicode="&#xc6;" horiz-adv-x="1705" d="M31 0l649 1479h917v-164h-608l64 -475h528v-164h-500l72 -512h465v-164h-627l-51 352h-561l-150 -352h-198zM455 516h463l-113 811h-4z" />
<glyph unicode="&#xc7;" horiz-adv-x="1138" d="M150 555v418q0 153 32.5 259.5t97 166t148 85t197.5 25.5q216 0 308.5 -109t78.5 -329h-195q4 159 -43 215q-26 31 -77 47.5t-89 16.5q-54 0 -99 -14.5t-70 -36t-38 -38t-16 -26.5q0 -1 -5 -10.5t-9 -19.5t-9.5 -34t-9.5 -54t-7 -79.5t-3 -109.5v-396q0 -105 14 -180.5 t36.5 -118.5t58.5 -67.5t71 -31.5t84 -7q23 0 46.5 4t59.5 22t62 49t45.5 91.5t20.5 142.5h194q1 -74 -9 -136.5t-27 -107t-44 -80.5t-53.5 -59t-61 -39.5t-61.5 -25t-60.5 -13t-52.5 -5.5t-42 -1l-72 -92l4 -4q32 12 61 12q72 0 121 -41.5t49 -113.5q0 -50 -21.5 -88 t-57.5 -60t-76 -32.5t-82 -10.5q-95 0 -203 45l35 82q87 -31 133 -31q45 0 81 20t36 62q0 41 -29 62.5t-72 21.5q-12 0 -24.5 -2.5t-29.5 -7.5t-23 -6l-35 39l108 149q-41 3 -76 10.5t-74.5 25t-71 45t-61 72t-49.5 103t-32 142t-12 184.5z" />
<glyph unicode="&#xc8;" d="M166 0v1479h762v-164h-574v-475h533v-164h-533v-512h586v-164h-774zM268 1923h224l182 -289h-137z" />
<glyph unicode="&#xc9;" d="M166 0v1479h762v-164h-574v-475h533v-164h-533v-512h586v-164h-774zM350 1634l182 289h224l-269 -289h-137z" />
<glyph unicode="&#xca;" d="M166 0v1479h762v-164h-574v-475h533v-164h-533v-512h586v-164h-774zM213 1634l205 289h188l205 -289h-164l-135 193l-135 -193h-164z" />
<glyph unicode="&#xcb;" d="M166 0v1479h762v-164h-574v-475h533v-164h-533v-512h586v-164h-774zM236 1653v213h192v-213h-192zM596 1653v213h192v-213h-192z" />
<glyph unicode="&#xcc;" horiz-adv-x="569" d="M41 1923h223l182 -289h-137zM190 0v1479h189v-1479h-189z" />
<glyph unicode="&#xcd;" horiz-adv-x="569" d="M123 1634l182 289h223l-268 -289h-137zM190 0v1479h189v-1479h-189z" />
<glyph unicode="&#xce;" horiz-adv-x="569" d="M-14 1634l204 289h189l205 -289h-164l-135 193l-135 -193h-164zM190 0v1479h189v-1479h-189z" />
<glyph unicode="&#xcf;" horiz-adv-x="569" d="M8 1653v213h193v-213h-193zM190 0v1479h189v-1479h-189zM369 1653v213h192v-213h-192z" />
<glyph unicode="&#xd0;" horiz-adv-x="1251" d="M27 750v114h143v615h455q291 0 397 -226q27 -56 43 -168.5t19 -182t3 -116.5q0 -451 -90 -596q-61 -96 -178.5 -143t-308.5 -47h-340v750h-143zM358 164h179q135 0 210.5 39t111.5 134.5t36 268.5v299q0 221 -69.5 315.5t-219.5 94.5h-248v-451h310v-114h-310v-586z" />
<glyph unicode="&#xd1;" horiz-adv-x="1366" d="M176 0v1479h266l576 -1266h4v1266h168v-1479h-258l-584 1282h-4v-1282h-168zM336 1628q10 100 63 160.5t150 60.5q56 0 153 -37q89 -38 121 -38q96 0 105 92h104q-10 -94 -65.5 -159t-147.5 -65q-45 0 -147.5 39t-147.5 39q-34 0 -61.5 -28.5t-32.5 -63.5h-94z" />
<glyph unicode="&#xd2;" horiz-adv-x="1251" d="M160 541v485q0 227 117.5 355t347.5 128t347.5 -128t117.5 -355v-485q0 -303 -113 -437.5t-352 -134.5t-352 134.5t-113 437.5zM352 532q0 -120 17 -200t53.5 -124.5t84.5 -62.5t118 -18q94 0 151 33t89 123.5t32 248.5v500q0 63 -12.5 114.5t-31 84t-45.5 57t-51 36 t-53 18.5t-45 8.5t-34 1.5q-27 0 -52 -3t-68.5 -21t-74.5 -49.5t-54.5 -95.5t-23.5 -151v-500zM383 1923h223l182 -289h-137z" />
<glyph unicode="&#xd3;" horiz-adv-x="1251" d="M160 541v485q0 227 117.5 355t347.5 128t347.5 -128t117.5 -355v-485q0 -303 -113 -437.5t-352 -134.5t-352 134.5t-113 437.5zM352 532q0 -120 17 -200t53.5 -124.5t84.5 -62.5t118 -18q94 0 151 33t89 123.5t32 248.5v500q0 63 -12.5 114.5t-31 84t-45.5 57t-51 36 t-53 18.5t-45 8.5t-34 1.5q-27 0 -52 -3t-68.5 -21t-74.5 -49.5t-54.5 -95.5t-23.5 -151v-500zM465 1634l182 289h223l-268 -289h-137z" />
<glyph unicode="&#xd4;" horiz-adv-x="1251" d="M160 541v485q0 227 117.5 355t347.5 128t347.5 -128t117.5 -355v-485q0 -303 -113 -437.5t-352 -134.5t-352 134.5t-113 437.5zM328 1634l204 289h189l205 -289h-164l-135 193l-135 -193h-164zM352 532q0 -120 17 -200t53.5 -124.5t84.5 -62.5t118 -18q94 0 151 33 t89 123.5t32 248.5v500q0 63 -12.5 114.5t-31 84t-45.5 57t-51 36t-53 18.5t-45 8.5t-34 1.5q-27 0 -52 -3t-68.5 -21t-74.5 -49.5t-54.5 -95.5t-23.5 -151v-500z" />
<glyph unicode="&#xd5;" horiz-adv-x="1251" d="M160 541v485q0 227 117.5 355t347.5 128t347.5 -128t117.5 -355v-485q0 -303 -113 -437.5t-352 -134.5t-352 134.5t-113 437.5zM279 1628q10 100 63 160.5t150 60.5q56 0 153 -37q89 -38 121 -38q95 0 104 92h105q-10 -93 -66 -158.5t-147 -65.5q-45 0 -147.5 39 t-147.5 39q-34 0 -61.5 -28.5t-32.5 -63.5h-94zM352 532q0 -120 17 -200t53.5 -124.5t84.5 -62.5t118 -18q94 0 151 33t89 123.5t32 248.5v500q0 63 -12.5 114.5t-31 84t-45.5 57t-51 36t-53 18.5t-45 8.5t-34 1.5q-27 0 -52 -3t-68.5 -21t-74.5 -49.5t-54.5 -95.5 t-23.5 -151v-500z" />
<glyph unicode="&#xd6;" horiz-adv-x="1251" d="M160 541v485q0 227 117.5 355t347.5 128t347.5 -128t117.5 -355v-485q0 -303 -113 -437.5t-352 -134.5t-352 134.5t-113 437.5zM350 1653v213h193v-213h-193zM352 532q0 -120 17 -200t53.5 -124.5t84.5 -62.5t118 -18q94 0 151 33t89 123.5t32 248.5v500 q0 63 -12.5 114.5t-31 84t-45.5 57t-51 36t-53 18.5t-45 8.5t-34 1.5q-27 0 -52 -3t-68.5 -21t-74.5 -49.5t-54.5 -95.5t-23.5 -151v-500zM711 1653v213h192v-213h-192z" />
<glyph unicode="&#xd7;" d="M88 184l334 334l-334 334l90 90l334 -334l334 334l90 -90l-334 -334l334 -334l-90 -90l-334 334l-334 -334z" />
<glyph unicode="&#xd8;" horiz-adv-x="1251" d="M84 -20l137 208q-61 125 -61 353v485q0 227 117.5 355t347.5 128q245 0 364 -145l105 162l71 -47l-127 -195q52 -104 52 -258v-485q0 -303 -113 -437.5t-352 -134.5q-237 0 -355 142l-116 -179zM352 532q0 -82 8 -131l512 785q-59 166 -247 166q-27 0 -52 -3t-68.5 -21 t-74.5 -49.5t-54.5 -95.5t-23.5 -151v-500zM385 287q30 -86 88.5 -123t151.5 -37q94 0 151 33t89 123.5t32 248.5v500q0 23 -2 33z" />
<glyph unicode="&#xd9;" horiz-adv-x="1251" d="M160 541v938h188v-947q0 -120 17.5 -200t54.5 -124.5t86 -62.5t119 -18t118.5 18t85.5 62.5t54.5 124.5t17.5 200v947h189v-938q0 -303 -113 -437.5t-352 -134.5t-352 134.5t-113 437.5zM383 1923h223l182 -289h-137z" />
<glyph unicode="&#xda;" horiz-adv-x="1251" d="M160 541v938h188v-947q0 -120 17.5 -200t54.5 -124.5t86 -62.5t119 -18t118.5 18t85.5 62.5t54.5 124.5t17.5 200v947h189v-938q0 -303 -113 -437.5t-352 -134.5t-352 134.5t-113 437.5zM465 1634l182 289h223l-268 -289h-137z" />
<glyph unicode="&#xdb;" horiz-adv-x="1251" d="M160 541v938h188v-947q0 -120 17.5 -200t54.5 -124.5t86 -62.5t119 -18t118.5 18t85.5 62.5t54.5 124.5t17.5 200v947h189v-938q0 -303 -113 -437.5t-352 -134.5t-352 134.5t-113 437.5zM328 1634l204 289h189l205 -289h-164l-135 193l-135 -193h-164z" />
<glyph unicode="&#xdc;" horiz-adv-x="1251" d="M160 541v938h188v-947q0 -120 17.5 -200t54.5 -124.5t86 -62.5t119 -18t118.5 18t85.5 62.5t54.5 124.5t17.5 200v947h189v-938q0 -303 -113 -437.5t-352 -134.5t-352 134.5t-113 437.5zM350 1653v213h193v-213h-193zM711 1653v213h192v-213h-192z" />
<glyph unicode="&#xdd;" d="M16 1479h211l289 -715l299 715h191l-404 -916v-563h-188v563zM350 1634l182 289h224l-269 -289h-137z" />
<glyph unicode="&#xde;" horiz-adv-x="1138" d="M190 0v1479h189v-250h250q411 0 411 -422q0 -96 -29 -170.5t-72.5 -118t-101 -71t-108.5 -37t-102 -9.5h-248v-401h-189zM379 565h207q30 0 58 3.5t67.5 19t67.5 41t48.5 74t20.5 114.5q0 64 -18 112t-43 73t-57 40t-53 19t-38 4h-260v-500z" />
<glyph unicode="&#xdf;" horiz-adv-x="1138" d="M143 0v1186q0 74 29.5 133t72.5 93.5t98 57.5t100.5 31t84.5 8q81 0 146.5 -15.5t120.5 -49.5t85.5 -96t30.5 -148q0 -67 -29 -117t-79 -100q-6 -6 -31.5 -29.5t-34 -33t-23.5 -28t-20.5 -35t-5.5 -34.5q0 -40 35 -78t84.5 -75t99 -81t84.5 -114.5t35 -157.5 q0 -27 -2 -52t-9.5 -60.5t-20 -65t-36.5 -61t-56 -53t-81.5 -35t-109.5 -13.5q-305 0 -305 279h176q-3 -65 29.5 -103t97.5 -38q141 0 141 188q0 49 -18.5 90t-48.5 70.5t-66 57t-72 56t-66 60t-48.5 77t-18.5 99.5q0 36 21.5 75.5t53 74.5t62.5 70t52.5 74.5t21.5 76.5 q0 92 -50.5 140t-140.5 48q-45 0 -80.5 -9t-58.5 -21.5t-39 -35t-24.5 -41.5t-12.5 -48.5t-5 -48.5t-1 -50v-1118h-168z" />
<glyph unicode="&#xe0;" d="M133 319q0 65 17.5 116.5t48.5 85t73 58.5t91 36.5t102 19t106.5 7t104.5 -0.5q0 42 1 82.5t-8.5 77.5t-26.5 65.5t-52.5 45t-87.5 16.5q-83 0 -126.5 -51t-35.5 -134h-182q6 168 92.5 240t257.5 72q97 0 164.5 -23.5t104 -68t52 -98t15.5 -122.5v-497q0 -113 20 -246 h-184v150h-4q-38 -89 -100.5 -129.5t-159.5 -40.5q-155 0 -219 88.5t-64 250.5zM268 1479h224l182 -289h-137zM301 307q0 -81 41 -135.5t121 -54.5q34 0 63.5 9t60 35t51 68.5t32 115.5t6.5 169q-142 -2 -186 -8q-152 -22 -181 -134q-8 -29 -8 -65z" />
<glyph unicode="&#xe1;" d="M133 319q0 65 17.5 116.5t48.5 85t73 58.5t91 36.5t102 19t106.5 7t104.5 -0.5q0 42 1 82.5t-8.5 77.5t-26.5 65.5t-52.5 45t-87.5 16.5q-83 0 -126.5 -51t-35.5 -134h-182q6 168 92.5 240t257.5 72q97 0 164.5 -23.5t104 -68t52 -98t15.5 -122.5v-497q0 -113 20 -246 h-184v150h-4q-38 -89 -100.5 -129.5t-159.5 -40.5q-155 0 -219 88.5t-64 250.5zM301 307q0 -81 41 -135.5t121 -54.5q34 0 63.5 9t60 35t51 68.5t32 115.5t6.5 169q-142 -2 -186 -8q-152 -22 -181 -134q-8 -29 -8 -65zM350 1190l182 289h224l-269 -289h-137z" />
<glyph unicode="&#xe2;" d="M133 319q0 65 17.5 116.5t48.5 85t73 58.5t91 36.5t102 19t106.5 7t104.5 -0.5q0 42 1 82.5t-8.5 77.5t-26.5 65.5t-52.5 45t-87.5 16.5q-83 0 -126.5 -51t-35.5 -134h-182q6 168 92.5 240t257.5 72q97 0 164.5 -23.5t104 -68t52 -98t15.5 -122.5v-497q0 -113 20 -246 h-184v150h-4q-38 -89 -100.5 -129.5t-159.5 -40.5q-155 0 -219 88.5t-64 250.5zM213 1190l205 289h188l205 -289h-164l-135 192l-135 -192h-164zM301 307q0 -81 41 -135.5t121 -54.5q34 0 63.5 9t60 35t51 68.5t32 115.5t6.5 169q-142 -2 -186 -8q-152 -22 -181 -134 q-8 -29 -8 -65z" />
<glyph unicode="&#xe3;" d="M133 319q0 65 17.5 116.5t48.5 85t73 58.5t91 36.5t102 19t106.5 7t104.5 -0.5q0 42 1 82.5t-8.5 77.5t-26.5 65.5t-52.5 45t-87.5 16.5q-83 0 -126.5 -51t-35.5 -134h-182q6 168 92.5 240t257.5 72q97 0 164.5 -23.5t104 -68t52 -98t15.5 -122.5v-497q0 -113 20 -246 h-184v150h-4q-38 -89 -100.5 -129.5t-159.5 -40.5q-155 0 -219 88.5t-64 250.5zM164 1184q10 100 63 160.5t150 60.5q56 0 153 -37q4 -2 13.5 -6t14 -6t13 -5.5t13 -5t12 -4.5t12.5 -4t11.5 -3t11 -3t10 -1.5t10.5 -0.5q96 0 105 92h104q-10 -94 -65.5 -158.5t-147.5 -64.5 q-45 0 -147.5 39t-147.5 39q-34 0 -61.5 -28.5t-32.5 -63.5h-94zM301 307q0 -81 41 -135.5t121 -54.5q34 0 63.5 9t60 35t51 68.5t32 115.5t6.5 169q-142 -2 -186 -8q-152 -22 -181 -134q-8 -29 -8 -65z" />
<glyph unicode="&#xe4;" d="M133 319q0 65 17.5 116.5t48.5 85t73 58.5t91 36.5t102 19t106.5 7t104.5 -0.5q0 42 1 82.5t-8.5 77.5t-26.5 65.5t-52.5 45t-87.5 16.5q-83 0 -126.5 -51t-35.5 -134h-182q6 168 92.5 240t257.5 72q97 0 164.5 -23.5t104 -68t52 -98t15.5 -122.5v-497q0 -113 20 -246 h-184v150h-4q-38 -89 -100.5 -129.5t-159.5 -40.5q-155 0 -219 88.5t-64 250.5zM236 1208v213h192v-213h-192zM301 307q0 -81 41 -135.5t121 -54.5q34 0 63.5 9t60 35t51 68.5t32 115.5t6.5 169q-142 -2 -186 -8q-152 -22 -181 -134q-8 -29 -8 -65zM596 1208v213h192v-213 h-192z" />
<glyph unicode="&#xe5;" d="M133 319q0 65 17.5 116.5t48.5 85t73 58.5t91 36.5t102 19t106.5 7t104.5 -0.5q0 42 1 82.5t-8.5 77.5t-26.5 65.5t-52.5 45t-87.5 16.5q-83 0 -126.5 -51t-35.5 -134h-182q6 168 92.5 240t257.5 72q97 0 164.5 -23.5t104 -68t52 -98t15.5 -122.5v-497q0 -113 20 -246 h-184v150h-4q-38 -89 -100.5 -129.5t-159.5 -40.5q-155 0 -219 88.5t-64 250.5zM301 307q0 -81 41 -135.5t121 -54.5q34 0 63.5 9t60 35t51 68.5t32 115.5t6.5 169q-142 -2 -186 -8q-152 -22 -181 -134q-8 -29 -8 -65zM305 1374q0 86 60.5 146.5t146.5 60.5q87 0 147 -61 t60 -146q0 -86 -60.5 -146.5t-146.5 -60.5q-85 0 -146 60t-61 147zM389 1374q0 -50 36 -86.5t87 -36.5q50 0 86.5 36.5t36.5 86.5q0 51 -36.5 87t-86.5 36q-51 0 -87 -36t-36 -87z" />
<glyph unicode="&#xe6;" horiz-adv-x="1593" d="M137 289q0 51 9.5 92.5t24 72t40.5 55t50.5 40.5t62 27.5t67.5 17.5t75.5 10.5t76 6t79 3.5t76.5 4v105q0 104 -44.5 154.5t-147.5 50.5q-83 0 -126.5 -51t-35.5 -134h-182q6 168 92.5 240t257.5 72q52 0 92.5 -5.5t83 -20t73 -46t46.5 -78.5h4q23 77 97.5 113.5 t164.5 36.5q63 0 107 -6t106 -37t98.5 -87.5t59 -167t12.5 -265.5h-579q4 -140 10 -182q26 -171 153 -190q16 -3 35 -3q183 0 193 215h182q0 -52 -6 -94t-29.5 -92.5t-63 -84.5t-113 -57.5t-173.5 -23.5q-103 0 -185.5 47t-111.5 139q-42 -97 -128.5 -141.5t-197.5 -44.5 q-147 0 -226 81t-79 228zM324 289q0 -79 40 -125.5t121 -46.5q35 0 63.5 7t60 30.5t51.5 62.5t31.5 109.5t6.5 165.5q-142 0 -187 -6q-151 -21 -180 -134q-7 -28 -7 -63zM877 618h401q9 310 -205 310q-25 0 -47 -5t-51 -23.5t-49 -50.5t-34.5 -91.5t-14.5 -139.5z" />
<glyph unicode="&#xe7;" d="M152 502q0 73 3 127t12.5 114.5t26.5 104t46.5 85t70 66.5t100 40.5t134.5 15.5q157 0 240.5 -91t76.5 -262h-174q1 61 -11.5 105t-35 67t-46.5 33.5t-50 10.5q-52 0 -89 -14.5t-67.5 -51.5t-45.5 -106.5t-15 -172.5q0 -258 44.5 -357t172.5 -99q18 0 41 10t49.5 33 t43.5 71t15 113h176q2 -77 -17.5 -140t-50.5 -101.5t-72.5 -66t-80 -39.5t-76.5 -15l-79 -105l4 -4q32 12 61 12q72 0 121 -41.5t49 -113.5q0 -50 -21.5 -88t-57.5 -60t-76 -32.5t-82 -10.5q-95 0 -203 45l35 82q87 -31 133 -31q45 0 80.5 20t35.5 62q0 41 -28.5 62.5 t-71.5 21.5q-12 0 -24.5 -2.5t-30 -7.5t-23.5 -6l-35 39l117 158q-60 5 -106 21t-88.5 52t-70 92t-44 146t-16.5 209z" />
<glyph unicode="&#xe8;" d="M131 502q0 73 3 127t12.5 114.5t26.5 104t46.5 85t70 66.5t100 40.5t134.5 15.5q110 0 182 -29.5t113 -95t57.5 -155.5t16.5 -224v-88h-582q0 -85 9.5 -146.5t26 -100t43.5 -61t57.5 -30.5t72.5 -8q82 0 128.5 56t51.5 140h185q-1 -167 -97 -250t-264 -83q-51 0 -91 5 t-82.5 19t-73.5 37.5t-60 63t-47 94t-28.5 131t-10.5 172.5zM268 1479h224l182 -289h-137zM311 590h404q0 88 -10 150.5t-26.5 98.5t-45 56.5t-56.5 26.5t-69 6q-44 0 -76 -13t-61 -47.5t-44 -104t-16 -173.5z" />
<glyph unicode="&#xe9;" d="M131 502q0 73 3 127t12.5 114.5t26.5 104t46.5 85t70 66.5t100 40.5t134.5 15.5q110 0 182 -29.5t113 -95t57.5 -155.5t16.5 -224v-88h-582q0 -85 9.5 -146.5t26 -100t43.5 -61t57.5 -30.5t72.5 -8q82 0 128.5 56t51.5 140h185q-1 -167 -97 -250t-264 -83q-51 0 -91 5 t-82.5 19t-73.5 37.5t-60 63t-47 94t-28.5 131t-10.5 172.5zM311 590h404q0 88 -10 150.5t-26.5 98.5t-45 56.5t-56.5 26.5t-69 6q-44 0 -76 -13t-61 -47.5t-44 -104t-16 -173.5zM350 1190l182 289h224l-269 -289h-137z" />
<glyph unicode="&#xea;" d="M131 502q0 73 3 127t12.5 114.5t26.5 104t46.5 85t70 66.5t100 40.5t134.5 15.5q110 0 182 -29.5t113 -95t57.5 -155.5t16.5 -224v-88h-582q0 -85 9.5 -146.5t26 -100t43.5 -61t57.5 -30.5t72.5 -8q82 0 128.5 56t51.5 140h185q-1 -167 -97 -250t-264 -83q-51 0 -91 5 t-82.5 19t-73.5 37.5t-60 63t-47 94t-28.5 131t-10.5 172.5zM213 1190l205 289h188l205 -289h-164l-135 192l-135 -192h-164zM311 590h404q0 88 -10 150.5t-26.5 98.5t-45 56.5t-56.5 26.5t-69 6q-44 0 -76 -13t-61 -47.5t-44 -104t-16 -173.5z" />
<glyph unicode="&#xeb;" d="M131 502q0 73 3 127t12.5 114.5t26.5 104t46.5 85t70 66.5t100 40.5t134.5 15.5q110 0 182 -29.5t113 -95t57.5 -155.5t16.5 -224v-88h-582q0 -85 9.5 -146.5t26 -100t43.5 -61t57.5 -30.5t72.5 -8q82 0 128.5 56t51.5 140h185q-1 -167 -97 -250t-264 -83q-51 0 -91 5 t-82.5 19t-73.5 37.5t-60 63t-47 94t-28.5 131t-10.5 172.5zM236 1208v213h192v-213h-192zM311 590h404q0 88 -10 150.5t-26.5 98.5t-45 56.5t-56.5 26.5t-69 6q-44 0 -76 -13t-61 -47.5t-44 -104t-16 -173.5zM596 1208v213h192v-213h-192z" />
<glyph unicode="&#xec;" horiz-adv-x="454" d="M-16 1479h223l182 -289h-137zM143 0v1034h168v-1034h-168z" />
<glyph unicode="&#xed;" horiz-adv-x="454" d="M66 1190l182 289h223l-268 -289h-137zM143 0v1034h168v-1034h-168z" />
<glyph unicode="&#xee;" horiz-adv-x="454" d="M-72 1190l205 289h189l204 -289h-164l-135 192l-135 -192h-164zM143 0v1034h168v-1034h-168z" />
<glyph unicode="&#xef;" horiz-adv-x="454" d="M-49 1208v213h192v-213h-192zM143 0v1034h168v-1034h-168zM311 1208v213h193v-213h-193z" />
<glyph unicode="&#xf0;" d="M119 492q0 71 3 124t12 112.5t24.5 102t43.5 83t66 65.5t93.5 40t125.5 15q62 0 102.5 -18t80.5 -58l4 5q-25 72 -72 144.5t-135 164.5l-180 -105l-64 62l170 100q-83 70 -172 117l113 96q103 -51 198 -131l191 113l61 -68l-186 -108q107 -108 170.5 -215.5t100 -266 t36.5 -374.5q0 -94 -10.5 -169.5t-28.5 -128.5t-47 -92t-60 -62t-73.5 -37t-82.5 -18.5t-91 -4.5t-91 4.5t-82.5 18.5t-73.5 37t-60 62t-47 92t-28.5 128.5t-10.5 169.5zM295 561q0 -252 44.5 -349t172.5 -97t172.5 97t44.5 349q0 102 -15 170t-45.5 104t-67.5 50t-89 14 t-89 -14t-67.5 -50t-45.5 -104t-15 -170z" />
<glyph unicode="&#xf1;" d="M137 1034h178v-133h9q49 86 111.5 120t164.5 34q81 0 136 -23t85.5 -69.5t43 -105.5t12.5 -140v-717h-168v717q0 201 -183 201q-53 0 -92.5 -19t-61.5 -47.5t-35.5 -71.5t-17.5 -81.5t-4 -86.5v-612h-168v819q0 95 -10 215zM164 1184q10 100 63 160.5t150 60.5 q56 0 153 -37q4 -2 13.5 -6t14 -6t13 -5.5t13 -5t12 -4.5t12.5 -4t11.5 -3t11 -3t10 -1.5t10.5 -0.5q96 0 105 92h104q-10 -94 -65.5 -158.5t-147.5 -64.5q-45 0 -147.5 39t-147.5 39q-34 0 -61.5 -28.5t-32.5 -63.5h-94z" />
<glyph unicode="&#xf2;" d="M119 502q0 73 3 127t12.5 114.5t26.5 104t46.5 85t70 66.5t100 40.5t134.5 15.5t134.5 -15.5t100 -40.5t70 -66.5t46.5 -85t26.5 -104t12.5 -114.5t3 -127q0 -96 -10.5 -172.5t-28.5 -131t-47 -94t-60 -63t-73.5 -37.5t-82.5 -19t-91 -5t-91 5t-82.5 19t-73.5 37.5 t-60 63t-47 94t-28.5 131t-10.5 172.5zM268 1479h224l182 -289h-137zM295 573q0 -258 44.5 -357t172.5 -99t172.5 99t44.5 357q0 103 -15 172.5t-45.5 106.5t-67.5 51.5t-89 14.5t-89 -14.5t-67.5 -51.5t-45.5 -106.5t-15 -172.5z" />
<glyph unicode="&#xf3;" d="M119 502q0 73 3 127t12.5 114.5t26.5 104t46.5 85t70 66.5t100 40.5t134.5 15.5t134.5 -15.5t100 -40.5t70 -66.5t46.5 -85t26.5 -104t12.5 -114.5t3 -127q0 -96 -10.5 -172.5t-28.5 -131t-47 -94t-60 -63t-73.5 -37.5t-82.5 -19t-91 -5t-91 5t-82.5 19t-73.5 37.5 t-60 63t-47 94t-28.5 131t-10.5 172.5zM295 573q0 -258 44.5 -357t172.5 -99t172.5 99t44.5 357q0 103 -15 172.5t-45.5 106.5t-67.5 51.5t-89 14.5t-89 -14.5t-67.5 -51.5t-45.5 -106.5t-15 -172.5zM350 1190l182 289h224l-269 -289h-137z" />
<glyph unicode="&#xf4;" d="M119 502q0 73 3 127t12.5 114.5t26.5 104t46.5 85t70 66.5t100 40.5t134.5 15.5t134.5 -15.5t100 -40.5t70 -66.5t46.5 -85t26.5 -104t12.5 -114.5t3 -127q0 -96 -10.5 -172.5t-28.5 -131t-47 -94t-60 -63t-73.5 -37.5t-82.5 -19t-91 -5t-91 5t-82.5 19t-73.5 37.5 t-60 63t-47 94t-28.5 131t-10.5 172.5zM213 1190l205 289h188l205 -289h-164l-135 192l-135 -192h-164zM295 573q0 -258 44.5 -357t172.5 -99t172.5 99t44.5 357q0 103 -15 172.5t-45.5 106.5t-67.5 51.5t-89 14.5t-89 -14.5t-67.5 -51.5t-45.5 -106.5t-15 -172.5z" />
<glyph unicode="&#xf5;" d="M119 502q0 73 3 127t12.5 114.5t26.5 104t46.5 85t70 66.5t100 40.5t134.5 15.5t134.5 -15.5t100 -40.5t70 -66.5t46.5 -85t26.5 -104t12.5 -114.5t3 -127q0 -96 -10.5 -172.5t-28.5 -131t-47 -94t-60 -63t-73.5 -37.5t-82.5 -19t-91 -5t-91 5t-82.5 19t-73.5 37.5 t-60 63t-47 94t-28.5 131t-10.5 172.5zM164 1184q10 100 63 160.5t150 60.5q56 0 153 -37q4 -2 13.5 -6t14 -6t13 -5.5t13 -5t12 -4.5t12.5 -4t11.5 -3t11 -3t10 -1.5t10.5 -0.5q96 0 105 92h104q-10 -94 -65.5 -158.5t-147.5 -64.5q-45 0 -147.5 39t-147.5 39 q-34 0 -61.5 -28.5t-32.5 -63.5h-94zM295 573q0 -258 44.5 -357t172.5 -99t172.5 99t44.5 357q0 103 -15 172.5t-45.5 106.5t-67.5 51.5t-89 14.5t-89 -14.5t-67.5 -51.5t-45.5 -106.5t-15 -172.5z" />
<glyph unicode="&#xf6;" d="M119 502q0 73 3 127t12.5 114.5t26.5 104t46.5 85t70 66.5t100 40.5t134.5 15.5t134.5 -15.5t100 -40.5t70 -66.5t46.5 -85t26.5 -104t12.5 -114.5t3 -127q0 -96 -10.5 -172.5t-28.5 -131t-47 -94t-60 -63t-73.5 -37.5t-82.5 -19t-91 -5t-91 5t-82.5 19t-73.5 37.5 t-60 63t-47 94t-28.5 131t-10.5 172.5zM236 1208v213h192v-213h-192zM295 573q0 -258 44.5 -357t172.5 -99t172.5 99t44.5 357q0 103 -15 172.5t-45.5 106.5t-67.5 51.5t-89 14.5t-89 -14.5t-67.5 -51.5t-45.5 -106.5t-15 -172.5zM596 1208v213h192v-213h-192z" />
<glyph unicode="&#xf7;" d="M88 455v127h848v-127h-848zM416 0v213h192v-213h-192zM416 823v213h192v-213h-192z" />
<glyph unicode="&#xf8;" d="M74 -27l114 160q-69 126 -69 369q0 73 3 127t12.5 114.5t26.5 104t46.5 85t70 66.5t100 40.5t134.5 15.5q180 0 274 -88l99 137l65 -41l-114 -160q41 -69 55 -166.5t14 -234.5q0 -96 -10.5 -172.5t-28.5 -131t-47 -94t-60 -63t-73.5 -37.5t-82.5 -19t-91 -5 q-92 0 -159.5 19t-116.5 69l-99 -140zM295 573q0 -171 18 -266l371 518q-49 93 -172 93q-52 0 -89 -14.5t-67.5 -51.5t-45.5 -106.5t-15 -172.5zM342 213q25 -50 65.5 -73t104.5 -23q128 0 172.5 99t44.5 357q0 105 -14 162z" />
<glyph unicode="&#xf9;" d="M154 246v788h168v-717q0 -97 44.5 -152.5t131.5 -55.5q78 0 140 60.5t62 178.5v686h168v-819q0 -83 11 -215h-179v125h-6q-41 -70 -110 -107.5t-152 -37.5q-136 0 -207 67.5t-71 198.5zM268 1479h224l182 -289h-137z" />
<glyph unicode="&#xfa;" d="M154 246v788h168v-717q0 -97 44.5 -152.5t131.5 -55.5q78 0 140 60.5t62 178.5v686h168v-819q0 -83 11 -215h-179v125h-6q-41 -70 -110 -107.5t-152 -37.5q-136 0 -207 67.5t-71 198.5zM350 1190l182 289h224l-269 -289h-137z" />
<glyph unicode="&#xfb;" d="M154 246v788h168v-717q0 -97 44.5 -152.5t131.5 -55.5q78 0 140 60.5t62 178.5v686h168v-819q0 -83 11 -215h-179v125h-6q-41 -70 -110 -107.5t-152 -37.5q-136 0 -207 67.5t-71 198.5zM213 1190l205 289h188l205 -289h-164l-135 192l-135 -192h-164z" />
<glyph unicode="&#xfc;" d="M154 246v788h168v-717q0 -97 44.5 -152.5t131.5 -55.5q78 0 140 60.5t62 178.5v686h168v-819q0 -83 11 -215h-179v125h-6q-41 -70 -110 -107.5t-152 -37.5q-136 0 -207 67.5t-71 198.5zM236 1208v213h192v-213h-192zM596 1208v213h192v-213h-192z" />
<glyph unicode="&#xfd;" horiz-adv-x="909" d="M16 1034h195l248 -841h4l248 841h182l-469 -1425h-174l117 391zM293 1190l182 289h223l-268 -289h-137z" />
<glyph unicode="&#xfe;" d="M162 -391v1870h168v-568h4q86 144 229 144q54 0 99.5 -11t78.5 -28.5t59 -47.5t43 -58.5t29 -72.5t18.5 -78t10 -85.5t4 -86t0.5 -87.5q0 -132 -19.5 -228.5t-49.5 -151.5t-76.5 -87.5t-89.5 -42.5t-99 -10q-149 0 -235 124h-6v-495h-168zM330 448.5q-1 -38.5 3 -77.5 t10 -76t20 -69.5t33.5 -56.5t50.5 -38t71 -14q44 0 78 14t56 33.5t37.5 54.5t23 62.5t11.5 74t4.5 71.5t0.5 71q0 90 -4 150.5t-16.5 115.5t-35 86.5t-59.5 49.5t-90 18q-39 0 -69.5 -13.5t-50.5 -33.5t-34.5 -52t-22 -61t-11.5 -68.5t-5 -67t-1 -63.5v-37q1 -35 0 -73.5z " />
<glyph unicode="&#xff;" horiz-adv-x="909" d="M16 1034h195l248 -841h4l248 841h182l-469 -1425h-174l117 391zM178 1208v213h193v-213h-193zM539 1208v213h192v-213h-192z" />
<glyph unicode="&#x152;" horiz-adv-x="1705" d="M147 551v344q0 160 29.5 273t89.5 181t142.5 99t195.5 31h1020v-164h-573v-475h532v-164h-532v-512h585v-164h-977q-270 0 -391 127.5t-121 423.5zM340 559q0 -94 11.5 -162t40.5 -123t83 -82.5t133 -27.5h254v1151h-270q-66 0 -110 -17.5t-77.5 -63.5t-49 -131 t-15.5 -216v-328z" />
<glyph unicode="&#x153;" horiz-adv-x="1593" d="M119 502q0 73 3 127t12.5 114.5t26.5 104t46.5 85t70 66.5t100 40.5t134.5 15.5q50 0 95.5 -8.5t89 -26.5t73 -53.5t37.5 -83.5h4q35 90 108.5 131t192.5 41q110 0 182 -29.5t113 -95t57.5 -155.5t16.5 -224v-88h-582q0 -85 9.5 -146.5t26 -100t43.5 -61t57.5 -30.5 t72.5 -8q82 0 128.5 56t51.5 140h185q-1 -167 -97 -250t-264 -83q-55 0 -99 6.5t-87.5 23.5t-76 50.5t-50.5 82.5q-48 -91 -117.5 -127t-169.5 -36q-51 0 -91 5t-82.5 19t-73.5 37.5t-60 63t-47 94t-28.5 131t-10.5 172.5zM295 573q0 -258 44.5 -357t172.5 -99t172.5 99 t44.5 357q0 103 -15 172.5t-45.5 106.5t-67.5 51.5t-89 14.5t-89 -14.5t-67.5 -51.5t-45.5 -106.5t-15 -172.5zM899 590h404q0 88 -10.5 149.5t-26.5 96t-44.5 53.5t-56 24t-69.5 5q-35 0 -61.5 -6.5t-53 -26.5t-43.5 -55t-27.5 -95.5t-11.5 -144.5z" />
<glyph unicode="&#x178;" d="M16 1479h211l289 -715l299 715h191l-404 -916v-563h-188v563zM236 1653v213h192v-213h-192zM596 1653v213h192v-213h-192z" />
<glyph unicode="&#x2c6;" horiz-adv-x="569" d="M-14 1190l204 289h189l205 -289h-164l-135 192l-135 -192h-164z" />
<glyph unicode="&#x2dc;" horiz-adv-x="569" d="M-63 1184q10 100 63 160.5t150 60.5q56 0 153 -37q4 -2 13.5 -6t14 -6t13 -5.5t13 -5t12 -4.5t12.5 -4t11.5 -3t11 -3t10 -1.5t10.5 -0.5q95 0 104 92h105q-10 -93 -66 -158t-147 -65q-45 0 -147.5 39t-147.5 39q-34 0 -61.5 -28.5t-32.5 -63.5h-94z" />
<glyph unicode="&#x2000;" horiz-adv-x="1012" />
<glyph unicode="&#x2001;" horiz-adv-x="2025" />
<glyph unicode="&#x2002;" horiz-adv-x="1012" />
<glyph unicode="&#x2003;" horiz-adv-x="2025" />
<glyph unicode="&#x2004;" horiz-adv-x="675" />
<glyph unicode="&#x2005;" horiz-adv-x="506" />
<glyph unicode="&#x2006;" horiz-adv-x="337" />
<glyph unicode="&#x2007;" horiz-adv-x="337" />
<glyph unicode="&#x2008;" horiz-adv-x="253" />
<glyph unicode="&#x2009;" horiz-adv-x="405" />
<glyph unicode="&#x200a;" horiz-adv-x="112" />
<glyph unicode="&#x2010;" horiz-adv-x="681" d="M115 479v158h450v-158h-450z" />
<glyph unicode="&#x2011;" horiz-adv-x="681" d="M115 479v158h450v-158h-450z" />
<glyph unicode="&#x2012;" horiz-adv-x="681" d="M115 479v158h450v-158h-450z" />
<glyph unicode="&#x2013;" d="M0 498v114h1024v-114h-1024z" />
<glyph unicode="&#x2014;" horiz-adv-x="2048" d="M0 498v114h2048v-114h-2048z" />
<glyph unicode="&#x2018;" horiz-adv-x="454" d="M72 1071l168 408h141l-88 -408h-221z" />
<glyph unicode="&#x2019;" horiz-adv-x="454" d="M72 1071l88 408h221l-168 -408h-141z" />
<glyph unicode="&#x201a;" horiz-adv-x="454" d="M72 -227l88 407h221l-168 -407h-141z" />
<glyph unicode="&#x201c;" horiz-adv-x="909" d="M129 1069l168 408h141l-88 -408h-221zM471 1069l168 408h141l-88 -408h-221z" />
<glyph unicode="&#x201d;" horiz-adv-x="909" d="M129 1071l88 408h221l-168 -408h-141zM471 1071l88 408h221l-168 -408h-141z" />
<glyph unicode="&#x201e;" horiz-adv-x="909" d="M129 -227l88 407h221l-168 -407h-141zM471 -227l88 407h221l-168 -407h-141z" />
<glyph unicode="&#x2022;" horiz-adv-x="681" d="M27 739q0 129 92.5 222.5t220.5 93.5q129 0 222 -93.5t93 -222.5q0 -128 -93 -220.5t-222 -92.5q-128 0 -220.5 93t-92.5 220z" />
<glyph unicode="&#x2026;" horiz-adv-x="2048" d="M246 0v213h192v-213h-192zM928 0v213h192v-213h-192zM1610 0v213h192v-213h-192z" />
<glyph unicode="&#x202f;" horiz-adv-x="405" />
<glyph unicode="&#x2039;" horiz-adv-x="454" d="M49 553l191 401h155l-162 -401l160 -395h-160z" />
<glyph unicode="&#x203a;" horiz-adv-x="454" d="M59 954h156l191 -401l-185 -395h-160l160 395z" />
<glyph unicode="&#x205f;" horiz-adv-x="506" />
<glyph unicode="&#x20ac;" horiz-adv-x="909" d="M14 506l23 137h94v135h-117l23 137h98v101q0 438 373 438q171 0 264.5 -92.5t93.5 -278.5h-182q0 97 -43.5 151t-132.5 54q-182 0 -182 -252v-121h327l-22 -137h-307v-135h282l-22 -137h-258v-121q0 -132 45.5 -196t146.5 -64q92 0 132 48.5t40 158.5h178 q0 -369 -360 -369q-375 0 -375 420v123h-119z" />
<glyph unicode="&#x2122;" horiz-adv-x="1689" d="M-6 1364v115h631v-115h-244v-772h-143v772h-244zM727 592v887h227l222 -660h4l215 660h223v-887h-143v698h-5l-245 -698h-117l-234 698h-4v-698h-143z" />
<glyph unicode="&#xe000;" horiz-adv-x="1034" d="M0 0v1034h1034v-1034h-1034z" />
</font>
</defs>
</svg>
